<?xml version="1.0" standalone="no"?>
<!DOCTYPE svg PUBLIC "-//W3C//DTD SVG 20010904//EN"
 "http://www.w3.org/TR/2001/REC-SVG-20010904/DTD/svg10.dtd">
<svg version="1.0" xmlns="http://www.w3.org/2000/svg"
 width="700.000000pt" height="700.000000pt" viewBox="0 0 700.000000 700.000000"
 preserveAspectRatio="xMidYMid meet">
<metadata>
Created by potrace 1.11, written by Peter Selinger 2001-2013
</metadata>
<g transform="translate(0.000000,700.000000) scale(0.100000,-0.100000)"
fill="#000000" stroke="none">
<path d="M3528 6285 c-2 -1 -61 -5 -133 -9 -71 -3 -141 -8 -155 -11 -14 -2
-45 -7 -70 -9 -159 -17 -371 -69 -578 -141 -122 -43 -133 -45 -159 -31 -55 28
-117 24 -170 -11 -39 -25 -61 -60 -78 -120 -4 -13 -27 -35 -53 -50 -191 -109
-397 -268 -575 -444 l-128 -126 -52 0 c-30 0 -66 -7 -84 -16 -74 -39 -111
-135 -80 -208 15 -36 14 -37 -32 -110 -270 -426 -417 -883 -437 -1357 l-6
-137 -40 -34 c-69 -59 -85 -129 -47 -208 14 -29 35 -52 65 -69 24 -14 44 -33
45 -42 0 -10 2 -28 5 -42 2 -14 9 -54 14 -90 57 -342 210 -725 417 -1039 75
-114 81 -125 68 -145 -49 -74 -1 -196 90 -231 39 -14 118 -16 131 -2 2 2 43
-35 90 -81 364 -351 797 -593 1269 -711 147 -36 243 -55 335 -66 25 -3 61 -8
80 -11 57 -9 449 -12 520 -4 l65 7 37 -42 c62 -70 159 -84 234 -33 31 21 63
70 68 104 4 24 17 30 121 57 249 66 520 185 751 330 96 61 236 161 279 200 14
13 28 16 45 12 108 -29 186 -3 228 76 23 43 27 105 8 150 -5 11 8 32 39 65 25
27 85 101 134 164 195 255 326 501 431 806 41 119 42 121 78 133 48 15 75 38
99 87 34 66 11 167 -48 207 -17 13 -18 20 -9 93 27 211 30 481 6 664 -2 14 -6
50 -10 80 -19 146 -67 343 -123 507 l-35 103 22 46 c53 108 -16 237 -132 246
-21 2 -33 13 -54 53 -68 125 -235 363 -335 475 -231 260 -520 488 -821 645
-29 15 -39 28 -44 52 -3 17 -21 49 -39 70 -52 61 -130 75 -208 39 -34 -17 -37
-16 -113 9 -123 42 -283 83 -386 100 -18 3 -44 7 -58 10 -14 3 -45 7 -70 10
-25 3 -61 8 -80 10 -19 3 -93 8 -165 11 -71 3 -138 7 -147 8 -9 2 -18 3 -20 1z
m202 -129 c52 -3 111 -8 130 -11 19 -3 58 -7 85 -10 102 -12 347 -70 475 -113
58 -20 56 -17 63 -99 2 -17 -55 -79 -225 -251 l-227 -229 -69 1 c-65 1 -73 -1
-112 -32 -43 -35 -40 -35 -130 -17 -24 5 -99 18 -165 30 -28 4 -42 7 -105 20
-30 5 -58 11 -165 30 -44 8 -91 17 -105 20 -14 3 -52 10 -86 16 -72 12 -74 14
-96 61 -32 69 -119 105 -203 85 -33 -8 -24 -14 -227 169 -46 41 -47 44 -44 91
l4 48 59 23 c144 57 422 127 578 147 28 4 61 8 75 11 14 2 77 7 140 10 63 3
116 7 117 8 3 3 136 -2 233 -8z m1315 -441 c334 -220 610 -507 824 -858 23
-38 36 -65 29 -61 -25 14 -313 198 -318 204 -3 3 -17 11 -31 19 -23 11 -27 21
-31 67 -12 137 -158 202 -272 121 -35 -25 -65 -89 -66 -142 l-1 -40 -147 -98
-148 -98 -33 17 c-40 20 -121 20 -159 0 -66 -34 -102 -96 -102 -173 0 -44 -3
-49 -72 -116 -40 -38 -132 -126 -204 -196 -72 -69 -222 -214 -334 -321 -111
-107 -241 -233 -289 -279 -103 -100 -124 -115 -150 -106 -11 3 -89 79 -175
168 -85 89 -187 196 -228 238 -73 75 -379 393 -514 535 -70 73 -71 75 -69 123
2 34 -3 63 -17 91 l-20 40 94 153 c226 364 196 324 243 324 47 0 97 23 122 56
l17 23 118 -22 c65 -13 135 -25 156 -29 20 -3 82 -15 137 -26 55 -11 116 -22
135 -25 19 -3 79 -14 133 -25 54 -10 100 -19 103 -19 2 0 11 -17 19 -37 20
-48 51 -81 94 -99 125 -52 267 66 232 194 l-11 37 231 231 231 232 62 -5 c55
-4 65 -2 106 25 l45 30 75 -41 c41 -22 125 -72 185 -112z m-2697 51 c26 0 57
3 69 7 22 8 40 -7 237 -185 26 -24 30 -33 27 -76 -1 -28 4 -66 13 -87 19 -44
33 -15 -144 -298 l-135 -215 -40 0 c-143 -1 -233 -148 -165 -270 13 -23 34
-49 46 -57 l23 -15 -2 -1104 -1 -1104 -34 -27 -33 -27 -77 18 c-89 21 -77 18
-125 27 -32 7 -41 15 -59 53 -16 35 -61 81 -96 100 -3 1 -10 150 -17 393 l-6
183 39 34 c89 76 90 193 2 268 -28 23 -49 31 -72 27 -13 -2 -27 34 -113 284
-47 138 -80 247 -74 250 21 13 42 72 42 117 0 137 -166 216 -273 129 -54 -43
-76 -102 -64 -170 9 -48 79 -117 126 -126 31 -6 39 -13 47 -39 5 -17 44 -131
86 -253 76 -221 76 -222 58 -248 -18 -26 -19 -26 -113 -20 -105 7 -160 12
-235 19 -27 3 -86 9 -129 12 -43 3 -86 8 -95 9 -9 2 -33 4 -53 4 -32 1 -40 6
-59 41 -12 22 -40 51 -60 65 -21 14 -37 31 -34 37 2 7 6 69 9 138 4 69 8 135
10 146 2 12 7 45 11 75 4 30 10 72 15 94 24 119 30 147 50 220 65 241 183 509
320 723 50 79 54 82 85 79 44 -5 101 15 135 48 28 27 30 27 127 21 107 -7 145
-14 138 -25 -8 -13 58 -83 91 -97 117 -49 245 39 239 163 -7 148 -187 213
-293 107 -33 -33 -36 -34 -96 -29 -33 3 -80 7 -103 9 -50 4 -59 9 -67 38 -5
19 15 44 127 153 167 165 363 317 527 408 l44 25 39 -26 c27 -18 52 -26 85
-26z m3402 -1019 c128 -81 130 -83 130 -119 0 -89 64 -162 150 -172 17 -2 33
-6 36 -9 15 -15 107 -313 118 -383 3 -18 10 -53 15 -76 5 -24 13 -68 17 -98 3
-30 8 -66 10 -80 9 -70 18 -226 17 -310 0 -157 -22 -402 -37 -417 -5 -5 -57
65 -361 483 -44 61 -44 61 -30 100 17 48 18 59 4 106 -12 45 -70 104 -109 113
-29 6 -33 13 -44 70 -9 44 -13 60 -36 165 -12 52 -23 102 -25 110 -2 8 -8 35
-14 60 -5 25 -12 56 -14 70 -3 14 -12 54 -21 90 -8 36 -18 80 -21 99 -3 19 -8
37 -10 41 -2 4 -7 22 -10 41 -3 19 -19 94 -36 166 -16 73 -29 135 -29 138 0 3
39 -20 86 -50 47 -30 143 -92 214 -138z m-461 171 c20 -7 37 -13 38 -13 2 -1
37 -150 48 -208 2 -10 6 -26 9 -35 3 -9 7 -28 10 -42 4 -24 67 -315 86 -395
23 -101 52 -232 56 -255 3 -14 10 -42 15 -64 10 -35 8 -41 -16 -66 -53 -55
-64 -142 -26 -205 l19 -30 -91 -197 c-71 -156 -94 -198 -109 -198 -46 0 -122
-65 -133 -113 -13 -59 -12 -78 10 -124 27 -60 74 -92 139 -97 141 -11 232 143
154 262 l-25 37 63 135 c111 236 116 245 144 245 25 0 76 -65 340 -431 l80
-111 -14 -34 c-19 -46 -12 -115 16 -155 13 -19 26 -34 31 -34 13 0 7 -29 -27
-127 -121 -353 -283 -631 -533 -920 -52 -59 -55 -61 -92 -56 -54 7 -108 -13
-150 -56 -20 -21 -45 -36 -56 -35 -11 0 -74 4 -140 8 -66 3 -172 9 -235 13
-186 10 -203 11 -256 12 -47 1 -51 3 -66 35 -16 33 -16 34 21 98 20 35 40 70
44 78 4 8 11 22 17 30 5 8 27 44 48 80 35 61 39 65 77 68 54 5 118 44 146 89
45 73 26 179 -43 239 l-23 20 0 1071 0 1071 37 39 c42 48 62 102 55 149 -6 34
-6 34 141 134 81 55 149 100 151 100 3 0 21 -5 40 -12z m-2359 -899 c107 -112
211 -219 230 -239 272 -284 297 -303 395 -303 83 0 130 29 275 169 73 71 158
154 190 184 32 30 159 152 282 271 122 119 257 249 298 288 l75 71 3 -1047 2
-1047 -29 -26 c-67 -62 -83 -156 -39 -231 l25 -42 -91 -157 -91 -158 -47 -4
c-115 -12 -182 -130 -134 -236 52 -112 214 -131 286 -34 13 17 30 29 39 27 9
-2 83 -6 165 -10 81 -3 184 -8 229 -11 45 -3 109 -7 142 -9 33 -2 80 -4 105
-5 l45 -1 -40 -34 c-229 -198 -620 -400 -961 -495 -119 -34 -130 -34 -166 -7
-18 13 -40 26 -49 29 -10 4 -22 39 -37 109 -13 57 -27 122 -32 144 -5 22 -23
105 -40 185 -17 80 -44 206 -60 280 -95 440 -103 483 -91 499 62 85 73 136 43
203 -46 104 -175 135 -262 62 -41 -35 -62 -78 -64 -133 l-1 -46 -397 -266
c-371 -249 -398 -265 -420 -253 -36 21 -115 17 -158 -7 -81 -46 -108 -160 -57
-238 32 -47 69 -69 129 -75 98 -9 177 59 182 157 l2 42 399 268 c350 235 404
267 429 262 16 -3 32 -7 34 -10 3 -3 15 -53 28 -112 13 -60 35 -162 49 -228
14 -66 28 -129 30 -141 13 -62 111 -518 129 -604 11 -50 20 -95 21 -104 0 -5
-12 -21 -26 -35 -14 -14 -30 -34 -36 -45 -8 -14 -27 -20 -84 -26 -71 -8 -452
-5 -514 4 -16 2 -54 7 -82 10 -82 10 -283 53 -380 81 -161 46 -316 108 -479
190 -246 124 -442 263 -652 460 l-92 87 4 56 c3 33 -1 70 -8 87 -12 28 -8 36
84 185 l97 155 47 7 c47 7 87 26 117 58 16 16 23 16 120 -7 57 -13 112 -24
121 -25 11 -2 20 -17 27 -43 38 -152 248 -186 335 -54 47 71 35 174 -28 232
l-31 30 0 1069 0 1070 135 -140 c74 -76 223 -231 330 -343z m-1870 -763 c47
-4 101 -9 120 -11 47 -6 129 -13 220 -20 41 -3 84 -8 95 -10 11 -2 39 -4 61
-4 36 -1 43 -5 54 -31 12 -28 45 -61 84 -85 14 -8 18 -34 22 -165 2 -85 6
-216 9 -291 l5 -137 -35 -23 c-65 -44 -92 -156 -54 -217 11 -18 2 -37 -85
-176 l-97 -156 -42 0 c-41 0 -44 2 -88 68 -192 280 -343 621 -405 915 -3 12
-9 42 -14 67 -5 25 -12 56 -14 69 -3 13 -8 47 -11 76 -6 51 -6 53 37 98 24 24
45 43 48 42 3 -2 43 -6 90 -9z"/>
</g>
</svg>
