<svg fill="#000000" xmlns="http://www.w3.org/2000/svg" viewBox="0 0 50 50" width="50px" height="50px"><path d="M15.647 20.195c.208.772.467 1.567.768 2.376.32-.604.656-1.209 1.017-1.812.236-.393.481-.77.726-1.148C17.269 19.778 16.427 19.973 15.647 20.195zM25 17c.853 0 1.68.032 2.495.078-.83-.977-1.668-1.844-2.495-2.592-.828.748-1.666 1.615-2.495 2.592C23.319 17.032 24.147 17 25 17zM31.84 19.611c.245.378.49.755.726 1.148.362.603.697 1.208 1.017 1.812.301-.809.56-1.604.768-2.376C33.572 19.973 32.73 19.778 31.84 19.611zM18.151 30.387c-.243-.375-.484-.755-.718-1.145-.362-.603-.697-1.208-1.017-1.812-.301.808-.56 1.603-.768 2.375C16.425 30.027 17.264 30.221 18.151 30.387zM34.351 29.805c-.208-.771-.467-1.567-.767-2.375-.32.604-.656 1.209-1.017 1.812-.234.391-.475.77-.718 1.146C32.735 30.221 33.574 30.027 34.351 29.805z"/><path d="M25,2C12.318,2,2,12.317,2,25s10.318,23,23,23s23-10.317,23-23S37.682,2,25,2z M36.704,31.17c0.395,2.186,0.403,4.173-0.03,5.791c-0.425,1.587-1.28,2.776-2.473,3.439c-0.717,0.398-1.523,0.589-2.394,0.589c-2.031,0-4.411-1.048-6.809-2.906c-2.398,1.858-4.777,2.906-6.808,2.906c-0.871,0-1.676-0.19-2.394-0.589c-1.193-0.663-2.048-1.853-2.474-3.44c-0.433-1.618-0.425-3.604-0.03-5.79C9.401,29.726,7,27.538,7,25c0-2.537,2.401-4.725,6.294-6.169c-0.395-2.186-0.403-4.172,0.03-5.789c0.425-1.588,1.281-2.777,2.474-3.44c2.389-1.328,5.776-0.345,9.202,2.309c3.425-2.654,6.811-3.637,9.202-2.309c1.193,0.663,2.048,1.853,2.474,3.44c0.433,1.618,0.425,3.604,0.03,5.789C40.599,20.274,43,22.462,43,25C43,27.538,40.599,29.726,36.704,31.17z"/><path d="M29.167 19.224C27.853 19.084 26.466 19 25 19c-1.466 0-2.854.084-4.168.224-.574.801-1.138 1.654-1.685 2.564-.64 1.067-1.211 2.144-1.712 3.212.502 1.069 1.072 2.146 1.712 3.212.547.912 1.114 1.761 1.69 2.564C22.15 30.916 23.536 31 25 31c1.464 0 2.849-.084 4.161-.223.576-.802 1.143-1.651 1.69-2.564.64-1.067 1.211-2.144 1.712-3.212-.501-1.069-1.072-2.146-1.712-3.212C30.305 20.878 29.741 20.025 29.167 19.224zM25 27c-1.105 0-2-.895-2-2 0-1.105.895-2 2-2s2 .895 2 2C27 26.105 26.105 27 25 27zM25 33c-.849 0-1.674-.032-2.486-.078.826.972 1.66 1.846 2.485 2.591.825-.745 1.659-1.618 2.485-2.591C26.673 32.968 25.849 33 25 33zM23.463 13.224c-1.962-1.46-3.794-2.223-5.223-2.223-.557 0-1.052.115-1.471.348-.718.399-1.228 1.143-1.513 2.209-.342 1.277-.344 2.876-.044 4.661 1.39-.386 2.914-.69 4.553-.897C20.952 15.76 22.199 14.386 23.463 13.224zM30.234 17.322c1.639.206 3.163.511 4.553.897.3-1.785.298-3.384-.044-4.661-.286-1.066-.795-1.81-1.513-2.209-.419-.232-.915-.348-1.471-.348-1.43 0-3.262.763-5.223 2.223C27.799 14.386 29.047 15.76 30.234 17.322zM26.545 36.775c2.721 2.021 5.192 2.706 6.685 1.877.718-.399 1.228-1.143 1.513-2.209.342-1.277.344-2.876.044-4.662-1.388.385-2.911.69-4.548.896C29.053 34.238 27.807 35.614 26.545 36.775zM36.25 20.83c-.368 1.348-.865 2.748-1.489 4.171.623 1.422 1.12 2.822 1.488 4.17C39.239 28.012 41 26.465 41 25 41 23.535 39.24 21.988 36.25 20.83zM19.76 32.678c-1.638-.206-3.16-.511-4.548-.896-.3 1.786-.298 3.385.044 4.662.286 1.066.795 1.81 1.513 2.209 1.492.828 3.963.143 6.684-1.878C22.191 35.613 20.945 34.238 19.76 32.678zM13.749 20.83C10.76 21.988 9 23.536 9 25c0 1.465 1.76 3.012 4.75 4.17.368-1.348.865-2.747 1.488-4.169C14.615 23.578 14.117 22.178 13.749 20.83z"/></svg>