<?xml version="1.0" encoding="utf-8"?>
<!-- Generator: Adobe Illustrator 12.0.0, SVG Export Plug-In . SVG Version: 6.00 Build 51448)  -->
<!DOCTYPE svg PUBLIC "-//W3C//DTD SVG 1.1//EN" "http://www.w3.org/Graphics/SVG/1.1/DTD/svg11.dtd" [
	<!ENTITY ns_svg "http://www.w3.org/2000/svg">
	<!ENTITY ns_xlink "http://www.w3.org/1999/xlink">
]>
<svg  version="1.1" id="Ebene_1" xmlns="&ns_svg;" xmlns:xlink="&ns_xlink;" width="388.409" height="513.28"
	 viewBox="0 0 388.409 513.28" overflow="visible" enable-background="new 0 0 388.409 513.28" xml:space="preserve">
<line fill="none" stroke="#B3A06C" stroke-width="8" x1="276.952" y1="105" x2="315.619" y2="86.837"/>
<line fill="none" stroke="#B3A06C" stroke-width="8" x1="315.619" y1="81.667" x2="362.297" y2="112.11"/>
<line fill="none" stroke="#B3A06C" stroke-width="8" x1="115.348" y1="23.573" x2="148.32" y2="53.224"/>
<line fill="none" stroke="#B3A06C" stroke-width="8" x1="148.327" y1="53.224" x2="116.452" y2="105"/>
<line fill="none" stroke="#B3A06C" stroke-width="8" x1="277.618" y1="275.667" x2="253.852" y2="317.738"/>
<line fill="none" stroke="#B3A06C" stroke-width="8" x1="253.86" y1="317.738" x2="322.743" y2="322.033"/>
<circle fill="#FFFFFF" stroke="#B3A06C" stroke-width="8" cx="253.86" cy="317.738" r="7.5"/>
<line fill="none" stroke="#B3A06C" stroke-width="8" x1="52.638" y1="305.628" x2="77.75" y2="266.472"/>
<line fill="none" stroke="#B3A06C" stroke-width="8" x1="77.753" y1="266.466" x2="117.618" y2="275.667"/>
<circle fill="none" stroke="#B3A06C" stroke-width="8" cx="195.25" cy="188" r="184"/>
<line fill="none" stroke="#A1163A" stroke-width="12" x1="116.452" y1="105" x2="116.285" y2="276"/>
<circle fill="#FFFFFF" stroke="#A1163A" stroke-width="8" cx="116.286" cy="276" r="8.502"/>
<line fill="none" stroke="#A1163A" stroke-width="12" x1="276.952" y1="105" x2="276.821" y2="281.17"/>
<circle fill="#FFFFFF" stroke="#A1163A" stroke-width="8" cx="276.82" cy="275.999" r="8.504"/>
<path fill="none" stroke="#A1163A" stroke-width="12" d="M195.25,188"/>
<path fill="none" stroke="#A1163A" stroke-width="12" d="M116.452,105"/>
<line fill="none" stroke="#B3A06C" stroke-width="8" x1="148.32" y1="53.224" x2="222.214" y2="67.747"/>
<line fill="none" stroke="#B3A06C" stroke-width="8" x1="268.578" y1="20.569" x2="222.214" y2="67.747"/>
<line fill="none" stroke="#B3A06C" stroke-width="8" x1="57.092" y1="150.291" x2="75.952" y2="205"/>
<line fill="none" stroke="#B3A06C" stroke-width="8" x1="77.753" y1="266.466" x2="75.952" y2="205"/>
<line fill="none" stroke="#B3A06C" stroke-width="8" x1="75.952" y1="205" x2="11.5" y2="199.024"/>
<circle fill="#FFFFFF" stroke="#B3A06C" stroke-width="8" cx="222.214" cy="67.747" r="7.5"/>
<circle fill="#FFFFFF" stroke="#B3A06C" stroke-width="8" cx="148.327" cy="53.224" r="7.5"/>
<circle fill="#FFFFFF" stroke="#B3A06C" stroke-width="8" cx="57.092" cy="150.291" r="7.5"/>
<circle fill="#FFFFFF" stroke="#B3A06C" stroke-width="8" cx="75.952" cy="205" r="7.5"/>
<circle fill="#FFFFFF" stroke="#B3A06C" stroke-width="8" cx="11.5" cy="199.024" r="7.5"/>
<circle fill="#FFFFFF" stroke="#B3A06C" stroke-width="8" cx="52.637" cy="305.628" r="7.5"/>
<circle fill="#FFFFFF" stroke="#B3A06C" stroke-width="8" cx="322.743" cy="322.033" r="7.5"/>
<circle fill="#FFFFFF" stroke="#B3A06C" stroke-width="8" cx="362.297" cy="112.11" r="7.5"/>
<circle fill="#FFFFFF" stroke="#B3A06C" stroke-width="8" cx="77.752" cy="266.465" r="7.5"/>
<path fill="none" stroke="#B3A06C" stroke-width="8" d="M222.214,67.747"/>
<circle fill="#FFFFFF" stroke="#B3A06C" stroke-width="8" cx="268.578" cy="20.569" r="7.5"/>
<line fill="none" stroke="#B3A06C" stroke-width="8" x1="315.619" y1="81.667" x2="335.952" y2="173"/>
<line fill="none" stroke="#B3A06C" stroke-width="8" x1="335.952" y1="173" x2="315.952" y2="219"/>
<line fill="none" stroke="#B3A06C" stroke-width="8" x1="335.952" y1="173" x2="375.288" y2="227.504"/>
<circle fill="#FFFFFF" stroke="#B3A06C" stroke-width="8" cx="335.952" cy="173" r="7.5"/>
<circle fill="#FFFFFF" stroke="#B3A06C" stroke-width="8" cx="315.952" cy="219" r="7.5"/>
<circle fill="#FFFFFF" stroke="#B3A06C" stroke-width="8" cx="115.348" cy="23.573" r="7.5"/>
<line fill="none" stroke="#B3A06C" stroke-width="8" x1="49.809" y1="76.657" x2="85.952" y2="80"/>
<circle fill="#FFFFFF" stroke="#B3A06C" stroke-width="8" cx="49.809" cy="76.657" r="7.5"/>
<circle fill="#FFFFFF" stroke="#B3A06C" stroke-width="8" cx="85.952" cy="80" r="7.5"/>
<line fill="none" stroke="#B3A06C" stroke-width="8" x1="205.024" y1="268.261" x2="226.403" y2="370.724"/>
<line fill="none" stroke="#B3A06C" stroke-width="8" x1="134.051" y1="317.082" x2="205.024" y2="268.261"/>
<circle fill="#FFFFFF" stroke="#B3A06C" stroke-width="8" cx="134.051" cy="317.082" r="7.5"/>
<circle fill="#FFFFFF" stroke="#B3A06C" stroke-width="8" cx="205.024" cy="268.261" r="7.5"/>
<circle fill="#FFFFFF" stroke="#B3A06C" stroke-width="8" cx="226.403" cy="370.724" r="7.5"/>
<circle fill="#FFFFFF" stroke="#B3A06C" stroke-width="8" cx="315.619" cy="81.667" r="7.5"/>
<circle fill="#FFFFFF" stroke="#B3A06C" stroke-width="8" cx="375.288" cy="227.504" r="7.5"/>
<path fill="none" stroke="#A1163A" stroke-width="12" d="M192.762,186.698"/>
<g>
	<path fill="none" stroke="#A1163A" stroke-width="12" d="M116.452,110.17l71.914,75.748c3.787,3.989,9.944,3.952,13.682-0.083
		L276.952,105"/>
</g>
<circle fill="#FFFFFF" stroke="#A1163A" stroke-width="8" cx="116.452" cy="105" r="8.504"/>
<circle fill="#FFFFFF" stroke="#A1163A" stroke-width="8" cx="276.952" cy="105" r="8.504"/>
<g>
	<path fill="#A1163A" d="M108.152,464.4c0.4,3.6,1.1,9.199,5.4,10.6c2.9,0.9,5.5,0.9,6.5,0.9c0.5,0,0.8,0.1,0.8,0.5
		c0,0.6-0.9,0.899-2.1,0.899c-2.2,0-13-0.3-16.7-0.6c-2.3-0.2-2.8-0.5-2.8-1c0-0.4,0.2-0.601,0.7-0.7s0.6-1.8,0.4-3.6l-4.8-51.601
		h-0.3l-24.5,52c-2.1,4.4-2.4,5.3-3.3,5.3c-0.7,0-1.2-1-3.1-4.6c-2.6-4.9-11.2-22.2-11.7-23.2c-0.9-1.8-12.1-25.8-13.2-28.5h-0.4
		l-4,46.4c-0.1,1.6-0.1,3.399-0.1,5.1c0,1.5,1.1,2.8,2.6,3.101c1.7,0.399,3.2,0.5,3.8,0.5c0.4,0,0.8,0.199,0.8,0.5
		c0,0.699-0.6,0.899-1.8,0.899c-3.7,0-8.5-0.3-9.3-0.3c-0.9,0-5.7,0.3-8.4,0.3c-1,0-1.7-0.2-1.7-0.899c0-0.301,0.5-0.5,1-0.5
		c0.8,0,1.5,0,3-0.301c3.3-0.6,3.6-4.5,4-8.3l7.2-65.2c0.1-1.1,0.5-1.8,1.1-1.8c0.6,0,1,0.399,1.5,1.5l30.6,62.9l29.4-62.801
		c0.4-0.899,0.8-1.6,1.5-1.6s1,0.8,1.2,2.7L108.152,464.4z"/>
	<path fill="#B3A06C" d="M147.151,448.3c0,9.601,0,17.5,0.5,21.7c0.3,2.9,0.9,5.1,3.9,5.5c1.4,0.2,3.6,0.4,4.5,0.4
		c0.6,0,0.8,0.3,0.8,0.6c0,0.5-0.5,0.8-1.6,0.8c-5.5,0-11.8-0.3-12.3-0.3s-6.8,0.3-9.8,0.3c-1.1,0-1.6-0.2-1.6-0.8
		c0-0.3,0.2-0.6,0.8-0.6c0.9,0,2.1-0.2,3-0.4c2-0.4,2.5-2.6,2.9-5.5c0.5-4.2,0.5-12.1,0.5-21.7v-17.6c0-15.601,0-18.4-0.2-21.601
		c-0.2-3.399-1.2-5.1-3.4-5.6c-1.1-0.301-2.4-0.4-3.1-0.4c-0.4,0-0.8-0.2-0.8-0.6c0-0.601,0.5-0.801,1.6-0.801
		c3.3,0,9.6,0.3,10.1,0.3s6.8-0.3,9.8-0.3c1.1,0,1.6,0.2,1.6,0.801c0,0.399-0.4,0.6-0.8,0.6c-0.7,0-1.3,0.1-2.5,0.3
		c-2.7,0.5-3.5,2.2-3.7,5.7c-0.2,3.2-0.2,6-0.2,21.601V448.3z"/>
	<path fill="#B3A06C" d="M182.75,430.7c0-15.601,0-18.4-0.2-21.601c-0.2-3.399-1-5-4.3-5.7c-0.8-0.2-2.5-0.3-3.4-0.3
		c-0.4,0-0.8-0.2-0.8-0.6c0-0.601,0.5-0.801,1.6-0.801c4.5,0,10.8,0.3,11.3,0.3c1.2,0,7.5-0.3,13.5-0.3
		c9.9,0,28.199-0.899,40.1,11.4c5,5.2,9.7,13.5,9.7,25.4c0,12.6-5.2,22.3-10.8,28.2c-4.301,4.5-13.301,11.5-30.301,11.5
		c-4.3,0-9.6-0.3-13.899-0.601c-4.4-0.3-7.8-0.6-8.3-0.6c-0.2,0-1.9,0-4,0.1c-2,0-4.3,0.2-5.8,0.2c-1.1,0-1.6-0.2-1.6-0.8
		c0-0.3,0.2-0.6,0.8-0.6c0.9,0,2.1-0.2,3-0.4c2-0.4,2.5-2.6,2.9-5.5c0.5-4.2,0.5-12.1,0.5-21.7V430.7z M191.149,441.5
		c0,10.6,0.1,19.8,0.2,21.7c0.1,2.5,0.3,6.5,1.101,7.6c1.3,1.9,5.199,4,17,4c9.3,0,17.9-3.399,23.8-9.3c5.2-5.1,8-14.7,8-23.9
		c0-12.7-5.5-20.899-9.601-25.2c-9.399-9.899-20.799-11.3-32.699-11.3c-2,0-5.7,0.3-6.5,0.7c-0.9,0.4-1.2,0.9-1.2,2
		c-0.1,3.4-0.1,13.6-0.1,21.3V441.5z"/>
	<path fill="#B3A06C" d="M287.849,404.2c1.2-3.301,1.601-3.9,2.2-3.9s1,0.5,2.199,3.6c1.5,3.801,17.201,45.101,23.301,60.301
		c3.6,8.899,6.5,10.5,8.6,11.1c1.5,0.5,3,0.601,4,0.601c0.6,0,1,0.1,1,0.6c0,0.6-0.9,0.8-2,0.8c-1.5,0-8.8,0-15.699-0.2
		c-1.9-0.1-3-0.1-3-0.699c0-0.4,0.299-0.601,0.699-0.7c0.6-0.2,1.2-1.101,0.6-2.7l-9.299-24.601c-0.201-0.399-0.4-0.6-0.9-0.6h-21.5
		c-0.5,0-0.801,0.3-1,0.8l-6,17.7c-0.9,2.5-1.4,4.9-1.4,6.7c0,2,2.1,2.9,3.801,2.9h1c0.699,0,1,0.199,1,0.6c0,0.6-0.601,0.8-1.5,0.8
		c-2.4,0-6.701-0.3-7.801-0.3s-6.6,0.3-11.3,0.3c-1.3,0-1.9-0.2-1.9-0.8c0-0.4,0.4-0.6,0.9-0.6c0.7,0,2.1-0.101,2.899-0.2
		c4.601-0.601,6.601-4.4,8.4-9.4L287.849,404.2z M298.249,444.2c0.5,0,0.5-0.301,0.4-0.7l-9.5-27c-0.5-1.5-1-1.5-1.5,0l-8.8,27
		c-0.2,0.5,0,0.7,0.3,0.7H298.249z"/>
	<path fill="#B3A06C" d="M338.047,476c-1.399-0.7-1.5-1.1-1.5-3.8c0-5,0.4-9,0.5-10.601c0.101-1.1,0.301-1.6,0.801-1.6
		c0.6,0,0.699,0.3,0.699,1.1c0,0.9,0,2.301,0.301,3.7c1.5,7.4,8.1,10.2,14.8,10.2c9.601,0,14.3-6.9,14.3-13.3
		c0-6.9-2.899-10.9-11.5-18l-4.5-3.7c-10.6-8.7-13-14.9-13-21.7c0-10.7,8-18,20.7-18c3.9,0,6.8,0.399,9.3,1
		c1.9,0.399,2.7,0.5,3.5,0.5c0.801,0,1,0.2,1,0.7s-0.399,3.8-0.399,10.6c0,1.601-0.2,2.3-0.7,2.3c-0.6,0-0.7-0.5-0.8-1.3
		c-0.101-1.2-0.7-3.899-1.3-5c-0.601-1.1-3.301-5.3-12.5-5.3c-6.9,0-12.301,4.3-12.301,11.6c0,5.7,2.601,9.301,12.2,16.801
		l2.8,2.199c11.801,9.301,14.601,15.5,14.601,23.501c0,4.1-1.601,11.699-8.5,16.6c-4.3,3-9.7,4.2-15.101,4.2
		C346.748,478.7,342.148,478,338.047,476z"/>
</g>
<g>
	<path fill="#34434B" d="M32.392,510.48c0.08,0.72,0.22,1.84,1.08,2.119c0.58,0.181,1.1,0.181,1.3,0.181c0.1,0,0.16,0.02,0.16,0.1
		c0,0.12-0.18,0.18-0.42,0.18c-0.44,0-2.6-0.06-3.34-0.119c-0.46-0.04-0.56-0.101-0.56-0.2c0-0.08,0.04-0.12,0.14-0.141
		c0.1-0.02,0.12-0.359,0.08-0.72l-0.96-10.32h-0.06l-4.9,10.4c-0.42,0.88-0.48,1.06-0.66,1.06c-0.14,0-0.24-0.199-0.62-0.92
		c-0.52-0.979-2.24-4.439-2.34-4.64c-0.18-0.36-2.42-5.16-2.64-5.7h-0.08l-0.8,9.28c-0.02,0.32-0.02,0.68-0.02,1.02
		c0,0.301,0.22,0.561,0.52,0.62c0.34,0.08,0.64,0.101,0.76,0.101c0.08,0,0.16,0.04,0.16,0.1c0,0.14-0.12,0.18-0.36,0.18
		c-0.74,0-1.7-0.06-1.86-0.06c-0.18,0-1.14,0.06-1.68,0.06c-0.2,0-0.34-0.04-0.34-0.18c0-0.06,0.1-0.1,0.2-0.1
		c0.16,0,0.3,0,0.6-0.061c0.66-0.12,0.72-0.899,0.8-1.66l1.44-13.04c0.02-0.22,0.1-0.359,0.22-0.359c0.12,0,0.2,0.08,0.3,0.3
		l6.12,12.58l5.88-12.56c0.08-0.181,0.16-0.32,0.3-0.32s0.2,0.16,0.24,0.54L32.392,510.48z"/>
	<path fill="#34434B" d="M38.052,505.12c0-2.64,0-3.12-0.04-3.66c-0.04-0.58-0.14-0.86-0.72-0.94c-0.14-0.02-0.44-0.039-0.6-0.039
		c-0.06,0-0.14-0.08-0.14-0.141c0-0.1,0.08-0.14,0.28-0.14c0.8,0,1.94,0.04,2.04,0.04c0.12,0,3.8,0.02,4.2,0
		c0.34-0.021,0.66-0.08,0.8-0.101c0.08-0.02,0.16-0.08,0.24-0.08c0.06,0,0.08,0.08,0.08,0.16c0,0.12-0.1,0.32-0.14,0.8
		c-0.02,0.16-0.06,0.921-0.1,1.12c-0.02,0.08-0.08,0.181-0.16,0.181c-0.1,0-0.14-0.08-0.14-0.221c0-0.119-0.02-0.399-0.1-0.6
		c-0.12-0.28-0.3-0.4-1.26-0.52c-0.3-0.04-2.34-0.061-2.54-0.061c-0.08,0-0.1,0.061-0.1,0.18v4.62c0,0.12,0,0.181,0.1,0.181
		c0.22,0,2.54,0,2.94-0.04c0.42-0.04,0.68-0.061,0.86-0.24c0.12-0.12,0.2-0.22,0.26-0.22s0.1,0.04,0.1,0.14s-0.1,0.38-0.14,0.94
		c-0.04,0.34-0.08,0.979-0.08,1.1c0,0.14-0.04,0.32-0.16,0.32c-0.08,0-0.12-0.061-0.12-0.16c0-0.16,0-0.34-0.08-0.561
		c-0.06-0.239-0.22-0.439-0.9-0.52c-0.48-0.061-2.36-0.08-2.66-0.08c-0.1,0-0.12,0.06-0.12,0.12v1.42c0,0.58-0.02,2.56,0,2.899
		c0.04,1.141,0.36,1.36,2.1,1.36c0.46,0,1.3,0,1.76-0.18c0.46-0.2,0.7-0.5,0.8-1.181c0.04-0.199,0.08-0.26,0.18-0.26
		s0.12,0.141,0.12,0.26c0,0.12-0.14,1.28-0.24,1.641c-0.12,0.439-0.3,0.439-0.98,0.439c-1.32,0-2.34-0.04-3.06-0.06
		c-0.74-0.04-1.2-0.04-1.46-0.04c-0.04,0-0.38,0-0.76,0.02c-0.34,0.021-0.74,0.04-1.02,0.04c-0.18,0-0.28-0.04-0.28-0.14
		c0-0.06,0.04-0.14,0.14-0.14c0.16,0,0.38-0.061,0.54-0.08c0.34-0.061,0.38-0.4,0.46-0.9c0.1-0.7,0.1-2.04,0.1-3.68V505.12z"/>
	<path fill="#34434B" d="M49.071,505.12c0-2.64,0-3.12-0.04-3.66c-0.04-0.58-0.14-0.86-0.72-0.94c-0.14-0.02-0.44-0.039-0.6-0.039
		c-0.06,0-0.14-0.08-0.14-0.141c0-0.1,0.08-0.14,0.28-0.14c0.8,0,1.94,0.04,2.04,0.04c0.2,0,1.32-0.04,2.36-0.04
		c1.76,0,4.98-0.16,7.06,1.939c0.88,0.88,1.72,2.301,1.72,4.32c0,2.14-0.92,3.78-1.9,4.78c-0.76,0.779-2.34,1.96-5.34,1.96
		c-0.76,0-1.7-0.061-2.46-0.101c-0.76-0.06-1.36-0.1-1.44-0.1c-0.04,0-0.36,0.02-0.72,0.02c-0.36,0.021-0.78,0.04-1.06,0.04
		c-0.18,0-0.28-0.04-0.28-0.14c0-0.06,0.04-0.14,0.14-0.14c0.16,0,0.38-0.04,0.54-0.08c0.34-0.08,0.38-0.4,0.46-0.9
		c0.1-0.7,0.1-2.04,0.1-3.68V505.12z M50.671,506.96c0,1.8,0,3.38,0.02,3.7c0.02,0.42,0.06,1.04,0.2,1.22
		c0.22,0.32,0.84,0.68,2.92,0.68c1.62,0,3.06-0.54,4.12-1.54c0.92-0.859,1.38-2.479,1.38-4.039c0-2.16-0.94-3.54-1.66-4.261
		c-1.66-1.68-3.6-1.899-5.7-1.899c-0.34,0-0.9,0.06-1.06,0.12c-0.16,0.06-0.22,0.14-0.22,0.34V506.96z"/>
	<path fill="#34434B" d="M66.671,508.12c0,1.64,0,2.979,0.08,3.68c0.06,0.5,0.12,0.82,0.64,0.9c0.26,0.04,0.64,0.08,0.8,0.08
		c0.1,0,0.14,0.08,0.14,0.14c0,0.08-0.08,0.14-0.28,0.14c-0.98,0-2.12-0.06-2.2-0.06c-0.1,0-1.2,0.06-1.74,0.06
		c-0.18,0-0.28-0.04-0.28-0.14c0-0.06,0.04-0.14,0.14-0.14c0.16,0,0.38-0.04,0.54-0.08c0.34-0.08,0.4-0.4,0.46-0.9
		c0.08-0.7,0.1-2.04,0.1-3.68v-3c0-2.64,0-3.12-0.04-3.66c-0.04-0.58-0.18-0.84-0.56-0.92c-0.2-0.04-0.42-0.06-0.54-0.06
		c-0.08,0-0.14-0.08-0.14-0.141c0-0.1,0.08-0.14,0.28-0.14c0.58,0,1.68,0.04,1.78,0.04c0.08,0,1.22-0.04,1.76-0.04
		c0.2,0,0.28,0.04,0.28,0.14c0,0.061-0.08,0.141-0.14,0.141c-0.12,0-0.24,0-0.44,0.039c-0.48,0.101-0.58,0.341-0.62,0.94
		c-0.02,0.54-0.02,1.021-0.02,3.66V508.12z"/>
	<path fill="#34434B" d="M72.711,511.46c-1.72-1.479-2.14-3.42-2.14-5.04c0-1.14,0.42-3.12,1.98-4.64
		c1.06-1.021,2.66-1.82,5.36-1.82c0.7,0,1.7,0.06,2.56,0.2c0.66,0.12,1.22,0.24,1.8,0.26c0.18,0,0.22,0.08,0.22,0.18
		c0,0.141-0.04,0.341-0.08,0.96c-0.02,0.561-0.02,1.5-0.04,1.74c-0.02,0.26-0.1,0.36-0.2,0.36c-0.12,0-0.14-0.12-0.14-0.36
		c0-0.66-0.28-1.34-0.74-1.7c-0.62-0.52-1.9-0.939-3.46-0.939c-2.26,0-3.34,0.6-3.96,1.18c-1.3,1.2-1.58,2.72-1.58,4.44
		c0,3.26,2.58,6.16,6.34,6.16c1.32,0,2.2-0.101,2.9-0.801c0.38-0.38,0.62-1.1,0.68-1.42c0.04-0.18,0.06-0.239,0.18-0.239
		c0.08,0,0.16,0.119,0.16,0.239s-0.24,1.601-0.42,2.181c-0.1,0.319-0.14,0.38-0.44,0.5c-0.72,0.279-2.04,0.38-3.18,0.38
		C75.871,513.28,74.091,512.66,72.711,511.46z"/>
	<path fill="#34434B" d="M89.411,500.54c0.22-0.56,0.3-0.66,0.42-0.66c0.18,0,0.24,0.24,0.42,0.62c0.32,0.72,3.14,7.74,4.22,10.32
		c0.64,1.52,1.12,1.739,1.5,1.859c0.26,0.08,0.52,0.101,0.7,0.101c0.1,0,0.22,0.04,0.22,0.14s-0.2,0.14-0.4,0.14
		c-0.26,0-1.56,0-2.78-0.04c-0.34-0.02-0.62-0.02-0.62-0.119c0-0.08,0.04-0.08,0.12-0.12c0.1-0.04,0.28-0.181,0.16-0.46l-1.58-3.9
		c-0.04-0.08-0.06-0.1-0.16-0.1h-4.06c-0.08,0-0.14,0.04-0.18,0.14l-1,2.72c-0.16,0.42-0.26,0.84-0.26,1.141
		c0,0.34,0.3,0.46,0.6,0.46h0.16c0.14,0,0.18,0.06,0.18,0.14c0,0.1-0.1,0.14-0.26,0.14c-0.42,0-1.38-0.06-1.58-0.06
		c-0.18,0-1.06,0.06-1.78,0.06c-0.22,0-0.34-0.04-0.34-0.14c0-0.08,0.08-0.14,0.16-0.14c0.12,0,0.38-0.021,0.52-0.04
		c0.8-0.101,1.14-0.7,1.48-1.561L89.411,500.54z M91.372,507.62c0.08,0,0.08-0.04,0.06-0.12l-1.74-4.66c-0.1-0.26-0.2-0.26-0.3,0
		l-1.64,4.66c-0.02,0.08,0,0.12,0.06,0.12H91.372z"/>
	<path fill="#34434B" d="M100.811,508.16c0,2.5,0.04,3.52,0.36,3.82c0.28,0.279,0.96,0.399,2.34,0.399c0.92,0,1.7-0.02,2.12-0.52
		c0.22-0.261,0.36-0.62,0.42-0.96c0.02-0.12,0.08-0.221,0.18-0.221c0.08,0,0.12,0.08,0.12,0.261c0,0.18-0.12,1.199-0.26,1.699
		c-0.12,0.4-0.18,0.46-1.12,0.46c-1.26,0-2.24-0.02-3.06-0.06c-0.8-0.021-1.4-0.04-1.92-0.04c-0.08,0-0.38,0-0.72,0.02
		c-0.36,0.021-0.74,0.04-1.02,0.04c-0.18,0-0.28-0.04-0.28-0.14c0-0.06,0.04-0.14,0.14-0.14c0.16,0,0.38-0.04,0.54-0.08
		c0.34-0.08,0.38-0.4,0.46-0.9c0.1-0.7,0.1-2.04,0.1-3.68v-3c0-2.64,0-3.12-0.04-3.66c-0.04-0.58-0.14-0.86-0.72-0.94
		c-0.14-0.02-0.44-0.039-0.6-0.039c-0.06,0-0.14-0.08-0.14-0.141c0-0.1,0.08-0.14,0.28-0.14c0.8,0,1.9,0.04,2,0.04
		c0.08,0,1.4-0.04,1.94-0.04c0.18,0,0.28,0.04,0.28,0.14c0,0.061-0.08,0.12-0.14,0.12c-0.12,0-0.38,0.021-0.58,0.04
		c-0.52,0.1-0.62,0.36-0.66,0.96c-0.02,0.54-0.02,1.021-0.02,3.66V508.16z"/>
	<path fill="#34434B" d="M118.551,507.26c0,1.92,0,3.5,0.1,4.34c0.06,0.58,0.18,1.021,0.78,1.101c0.28,0.04,0.72,0.08,0.9,0.08
		c0.12,0,0.16,0.06,0.16,0.12c0,0.1-0.1,0.159-0.32,0.159c-1.1,0-2.36-0.06-2.46-0.06s-1.36,0.06-1.96,0.06
		c-0.22,0-0.32-0.04-0.32-0.159c0-0.061,0.04-0.12,0.16-0.12c0.18,0,0.42-0.04,0.6-0.08c0.4-0.08,0.5-0.521,0.58-1.101
		c0.1-0.84,0.1-2.42,0.1-4.34v-3.52c0-3.12,0-3.681-0.04-4.32c-0.04-0.68-0.24-1.02-0.68-1.12c-0.22-0.06-0.48-0.08-0.62-0.08
		c-0.08,0-0.16-0.04-0.16-0.12c0-0.119,0.1-0.159,0.32-0.159c0.66,0,1.92,0.06,2.02,0.06s1.36-0.06,1.96-0.06
		c0.22,0,0.32,0.04,0.32,0.159c0,0.08-0.08,0.12-0.16,0.12c-0.14,0-0.26,0.021-0.5,0.061c-0.54,0.1-0.7,0.439-0.74,1.14
		c-0.04,0.64-0.04,1.2-0.04,4.32V507.26z"/>
	<path fill="#34434B" d="M138.39,510.86c0.06,0.6,0.18,1.52,0.9,1.76c0.5,0.16,0.96,0.16,1.14,0.16c0.08,0,0.14,0.04,0.14,0.12
		c0,0.1-0.16,0.159-0.36,0.159c-0.4,0-2.36-0.04-3-0.1c-0.42-0.04-0.5-0.1-0.5-0.18c0-0.061,0.04-0.12,0.12-0.141
		c0.1-0.02,0.12-0.279,0.08-0.6l-0.84-8.6h-0.04l-4.24,8.68c-0.36,0.74-0.46,0.899-0.62,0.899s-0.26-0.159-0.6-0.779
		c-0.46-0.84-1.62-3.021-2.06-3.94c-0.52-1.08-1.94-3.939-2.24-4.64h-0.08l-0.68,7.68c-0.02,0.26-0.02,0.58-0.02,0.86
		c0,0.26,0.16,0.42,0.42,0.479c0.3,0.08,0.56,0.101,0.68,0.101c0.06,0,0.14,0.06,0.14,0.12c0,0.119-0.12,0.159-0.32,0.159
		c-0.66,0-1.5-0.06-1.64-0.06c-0.16,0-1,0.06-1.48,0.06c-0.18,0-0.3-0.04-0.3-0.159c0-0.061,0.08-0.12,0.18-0.12
		c0.14,0,0.26-0.021,0.52-0.061c0.58-0.1,0.6-0.72,0.68-1.359l1.28-11.101c0.02-0.18,0.1-0.3,0.2-0.3c0.12,0,0.26,0.06,0.36,0.26
		l5.32,10.561l5.12-10.54c0.08-0.16,0.16-0.28,0.28-0.28c0.12,0,0.22,0.14,0.26,0.46L138.39,510.86z"/>
	<path fill="#34434B" d="M146.73,500.54c0.22-0.56,0.3-0.66,0.42-0.66c0.18,0,0.24,0.24,0.42,0.62c0.32,0.72,3.14,7.74,4.22,10.32
		c0.64,1.52,1.12,1.739,1.5,1.859c0.26,0.08,0.52,0.101,0.7,0.101c0.1,0,0.22,0.04,0.22,0.14s-0.2,0.14-0.4,0.14
		c-0.26,0-1.56,0-2.78-0.04c-0.34-0.02-0.62-0.02-0.62-0.119c0-0.08,0.04-0.08,0.12-0.12c0.1-0.04,0.28-0.181,0.16-0.46l-1.58-3.9
		c-0.04-0.08-0.06-0.1-0.16-0.1h-4.06c-0.08,0-0.14,0.04-0.18,0.14l-1,2.72c-0.16,0.42-0.26,0.84-0.26,1.141
		c0,0.34,0.3,0.46,0.6,0.46h0.16c0.14,0,0.18,0.06,0.18,0.14c0,0.1-0.1,0.14-0.26,0.14c-0.42,0-1.38-0.06-1.58-0.06
		c-0.18,0-1.06,0.06-1.78,0.06c-0.22,0-0.34-0.04-0.34-0.14c0-0.08,0.08-0.14,0.16-0.14c0.12,0,0.38-0.021,0.52-0.04
		c0.8-0.101,1.14-0.7,1.48-1.561L146.73,500.54z M148.69,507.62c0.08,0,0.08-0.04,0.06-0.12l-1.74-4.66c-0.1-0.26-0.2-0.26-0.3,0
		l-1.64,4.66c-0.02,0.08,0,0.12,0.06,0.12H148.69z"/>
	<path fill="#34434B" d="M164.81,508.72c0-1.38-0.04-1.58-0.76-1.72c-0.14-0.02-0.44-0.04-0.6-0.04c-0.06,0-0.14-0.08-0.14-0.14
		c0-0.12,0.08-0.141,0.28-0.141c0.8,0,1.98,0.04,2.08,0.04c0.08,0,1.18-0.04,1.72-0.04c0.2,0,0.28,0.021,0.28,0.141
		c0,0.06-0.08,0.14-0.14,0.14c-0.12,0-0.24,0-0.44,0.04c-0.48,0.08-0.62,0.34-0.66,0.94c-0.02,0.54-0.02,1.04-0.02,1.76v1.899
		c0,0.78-0.02,0.801-0.24,0.92c-1.12,0.58-2.72,0.761-3.74,0.761c-1.34,0-3.84-0.16-5.8-1.82c-1.08-0.9-2.1-2.72-2.1-4.84
		c0-2.72,1.38-4.64,2.94-5.58c1.58-0.96,3.34-1.08,4.68-1.08c1.12,0,2.36,0.2,2.7,0.28c0.36,0.08,0.98,0.18,1.42,0.18
		c0.18,0,0.22,0.08,0.22,0.16c0,0.24-0.1,0.7-0.1,2.4c0,0.279-0.08,0.359-0.2,0.359c-0.1,0-0.12-0.1-0.12-0.26
		c-0.02-0.22-0.12-0.72-0.4-1.12c-0.44-0.64-1.78-1.32-4.06-1.32c-1.06,0-2.34,0.08-3.68,1.101c-1.02,0.779-1.74,2.3-1.74,4.279
		c0,2.4,1.24,4.12,1.86,4.7c1.4,1.3,2.88,1.78,4.5,1.78c0.62,0,1.44-0.06,1.9-0.32c0.22-0.12,0.36-0.199,0.36-0.52V508.72z"/>
	<path fill="#34434B" d="M171.71,505.12c0-2.64,0-3.12-0.04-3.66c-0.04-0.58-0.14-0.86-0.72-0.94c-0.14-0.02-0.44-0.039-0.6-0.039
		c-0.06,0-0.14-0.08-0.14-0.141c0-0.1,0.08-0.14,0.28-0.14c0.8,0,1.94,0.04,2.04,0.04c0.12,0,3.8,0.02,4.2,0
		c0.34-0.021,0.66-0.08,0.8-0.101c0.08-0.02,0.16-0.08,0.24-0.08c0.06,0,0.08,0.08,0.08,0.16c0,0.12-0.1,0.32-0.14,0.8
		c-0.02,0.16-0.06,0.921-0.1,1.12c-0.02,0.08-0.08,0.181-0.16,0.181c-0.1,0-0.14-0.08-0.14-0.221c0-0.119-0.02-0.399-0.1-0.6
		c-0.12-0.28-0.3-0.4-1.26-0.52c-0.3-0.04-2.34-0.061-2.54-0.061c-0.08,0-0.1,0.061-0.1,0.18v4.62c0,0.12,0,0.181,0.1,0.181
		c0.22,0,2.54,0,2.94-0.04c0.42-0.04,0.68-0.061,0.86-0.24c0.12-0.12,0.2-0.22,0.26-0.22s0.1,0.04,0.1,0.14s-0.1,0.38-0.14,0.94
		c-0.04,0.34-0.08,0.979-0.08,1.1c0,0.14-0.04,0.32-0.16,0.32c-0.08,0-0.12-0.061-0.12-0.16c0-0.16,0-0.34-0.08-0.561
		c-0.06-0.239-0.22-0.439-0.9-0.52c-0.48-0.061-2.36-0.08-2.66-0.08c-0.1,0-0.12,0.06-0.12,0.12v1.42c0,0.58-0.02,2.56,0,2.899
		c0.04,1.141,0.36,1.36,2.1,1.36c0.46,0,1.3,0,1.76-0.18c0.46-0.2,0.7-0.5,0.8-1.181c0.04-0.199,0.08-0.26,0.18-0.26
		s0.12,0.141,0.12,0.26c0,0.12-0.14,1.28-0.24,1.641c-0.12,0.439-0.3,0.439-0.98,0.439c-1.32,0-2.34-0.04-3.06-0.06
		c-0.74-0.04-1.2-0.04-1.46-0.04c-0.04,0-0.38,0-0.76,0.02c-0.34,0.021-0.74,0.04-1.02,0.04c-0.18,0-0.28-0.04-0.28-0.14
		c0-0.06,0.04-0.14,0.14-0.14c0.16,0,0.38-0.061,0.54-0.08c0.34-0.061,0.38-0.4,0.46-0.9c0.1-0.7,0.1-2.04,0.1-3.68V505.12z"/>
	<path fill="#34434B" d="M191.91,500.54c0.22-0.56,0.3-0.66,0.42-0.66c0.18,0,0.24,0.24,0.42,0.62c0.32,0.72,3.139,7.74,4.219,10.32
		c0.641,1.52,1.121,1.739,1.5,1.859c0.261,0.08,0.521,0.101,0.701,0.101c0.1,0,0.219,0.04,0.219,0.14s-0.199,0.14-0.399,0.14
		c-0.26,0-1.56,0-2.78-0.04c-0.34-0.02-0.619-0.02-0.619-0.119c0-0.08,0.039-0.08,0.119-0.12c0.101-0.04,0.28-0.181,0.16-0.46
		l-1.58-3.9c-0.039-0.08-0.06-0.1-0.16-0.1h-4.06c-0.08,0-0.14,0.04-0.18,0.14l-1,2.72c-0.16,0.42-0.26,0.84-0.26,1.141
		c0,0.34,0.3,0.46,0.6,0.46h0.16c0.14,0,0.18,0.06,0.18,0.14c0,0.1-0.1,0.14-0.26,0.14c-0.42,0-1.38-0.06-1.58-0.06
		c-0.18,0-1.06,0.06-1.78,0.06c-0.22,0-0.34-0.04-0.34-0.14c0-0.08,0.08-0.14,0.16-0.14c0.12,0,0.38-0.021,0.52-0.04
		c0.8-0.101,1.14-0.7,1.48-1.561L191.91,500.54z M193.87,507.62c0.08,0,0.08-0.04,0.061-0.12l-1.74-4.66c-0.1-0.26-0.2-0.26-0.3,0
		l-1.64,4.66c-0.02,0.08,0,0.12,0.06,0.12H193.87z"/>
	<path fill="#34434B" d="M202.45,510.74c0.039,1.399,0.199,1.819,0.68,1.939c0.32,0.08,0.72,0.101,0.88,0.101
		c0.08,0,0.14,0.06,0.14,0.14c0,0.1-0.119,0.14-0.319,0.14c-1,0-1.7-0.06-1.86-0.06s-0.9,0.06-1.699,0.06
		c-0.181,0-0.281-0.02-0.281-0.14c0-0.08,0.061-0.14,0.141-0.14c0.141,0,0.46-0.021,0.72-0.101c0.44-0.12,0.5-0.58,0.5-2.12v-9.739
		c0-0.681,0.101-0.86,0.24-0.86c0.2,0,0.5,0.34,0.681,0.521c0.279,0.279,2.84,3,5.56,5.8c1.739,1.8,3.62,3.819,4.159,4.38
		l-0.18-8.521c-0.02-1.1-0.119-1.479-0.66-1.58c-0.319-0.06-0.72-0.079-0.859-0.079c-0.12,0-0.141-0.101-0.141-0.16
		c0-0.101,0.141-0.12,0.34-0.12c0.801,0,1.641,0.04,1.841,0.04s0.78-0.04,1.5-0.04c0.18,0,0.319,0.02,0.319,0.12
		c0,0.06-0.08,0.16-0.199,0.16c-0.08,0-0.221,0-0.42,0.039c-0.58,0.12-0.621,0.461-0.621,1.48l-0.039,9.96
		c0,1.12-0.021,1.22-0.141,1.22c-0.18,0-0.359-0.14-1.34-1.04c-0.18-0.159-2.72-2.659-4.58-4.6c-2.039-2.14-4.02-4.22-4.56-4.82
		L202.45,510.74z"/>
	<path fill="#34434B" d="M217.969,505.12c0-2.64,0-3.12-0.039-3.66c-0.041-0.58-0.141-0.86-0.721-0.94
		c-0.14-0.02-0.439-0.039-0.6-0.039c-0.061,0-0.141-0.08-0.141-0.141c0-0.1,0.08-0.14,0.28-0.14c0.8,0,1.94,0.04,2.04,0.04
		c0.2,0,1.32-0.04,2.359-0.04c1.761,0,4.98-0.16,7.061,1.939c0.881,0.88,1.721,2.301,1.721,4.32c0,2.14-0.92,3.78-1.9,4.78
		c-0.76,0.779-2.34,1.96-5.34,1.96c-0.76,0-1.7-0.061-2.461-0.101c-0.76-0.06-1.359-0.1-1.439-0.1c-0.04,0-0.359,0.02-0.72,0.02
		c-0.36,0.021-0.78,0.04-1.06,0.04c-0.181,0-0.281-0.04-0.281-0.14c0-0.06,0.041-0.14,0.141-0.14c0.16,0,0.38-0.04,0.54-0.08
		c0.34-0.08,0.38-0.4,0.46-0.9c0.1-0.7,0.1-2.04,0.1-3.68V505.12z M219.57,506.96c0,1.8,0,3.38,0.021,3.7
		c0.02,0.42,0.059,1.04,0.199,1.22c0.221,0.32,0.84,0.68,2.92,0.68c1.62,0,3.061-0.54,4.12-1.54c0.92-0.859,1.38-2.479,1.38-4.039
		c0-2.16-0.939-3.54-1.66-4.261c-1.66-1.68-3.6-1.899-5.699-1.899c-0.34,0-0.9,0.06-1.061,0.12c-0.16,0.06-0.22,0.14-0.22,0.34
		V506.96z"/>
	<path fill="#34434B" d="M241.11,503.74c0-3.12,0-3.681-0.041-4.32c-0.039-0.68-0.199-1-0.859-1.14c-0.16-0.04-0.5-0.061-0.68-0.061
		c-0.08,0-0.16-0.04-0.16-0.12c0-0.119,0.1-0.159,0.32-0.159c0.899,0,2.159,0.06,2.26,0.06c0.24,0,1.5-0.06,2.699-0.06
		c1.98,0,5.641-0.181,8.021,2.279c1,1.04,1.94,2.7,1.94,5.08c0,2.521-1.041,4.46-2.16,5.641c-0.86,0.899-2.66,2.3-6.061,2.3
		c-0.859,0-1.92-0.061-2.779-0.12c-0.881-0.061-1.561-0.12-1.66-0.12c-0.041,0-0.381,0-0.801,0.02c-0.399,0-0.859,0.04-1.16,0.04
		c-0.219,0-0.319-0.04-0.319-0.159c0-0.061,0.04-0.12,0.159-0.12c0.181,0,0.421-0.04,0.601-0.08c0.399-0.08,0.5-0.521,0.58-1.101
		c0.101-0.84,0.101-2.42,0.101-4.34V503.74z M242.79,505.9c0,2.119,0.02,3.96,0.039,4.34c0.021,0.5,0.061,1.3,0.221,1.52
		c0.26,0.38,1.04,0.8,3.4,0.8c1.859,0,3.58-0.68,4.76-1.859c1.04-1.021,1.6-2.94,1.6-4.78c0-2.54-1.1-4.18-1.92-5.04
		c-1.88-1.979-4.16-2.26-6.54-2.26c-0.399,0-1.14,0.06-1.3,0.14c-0.18,0.08-0.24,0.181-0.24,0.4c-0.02,0.68-0.02,2.72-0.02,4.26
		V505.9z"/>
	<path fill="#34434B" d="M261.45,500.54c0.22-0.56,0.3-0.66,0.42-0.66c0.18,0,0.24,0.24,0.42,0.62c0.32,0.72,3.14,7.74,4.22,10.32
		c0.64,1.52,1.12,1.739,1.5,1.859c0.261,0.08,0.521,0.101,0.7,0.101c0.1,0,0.22,0.04,0.22,0.14s-0.2,0.14-0.399,0.14
		c-0.26,0-1.561,0-2.78-0.04c-0.34-0.02-0.62-0.02-0.62-0.119c0-0.08,0.04-0.08,0.12-0.12c0.101-0.04,0.28-0.181,0.16-0.46
		l-1.58-3.9c-0.04-0.08-0.06-0.1-0.16-0.1h-4.06c-0.08,0-0.141,0.04-0.181,0.14l-1,2.72c-0.159,0.42-0.26,0.84-0.26,1.141
		c0,0.34,0.3,0.46,0.601,0.46h0.159c0.14,0,0.181,0.06,0.181,0.14c0,0.1-0.101,0.14-0.26,0.14c-0.421,0-1.381-0.06-1.58-0.06
		c-0.181,0-1.061,0.06-1.781,0.06c-0.219,0-0.34-0.04-0.34-0.14c0-0.08,0.08-0.14,0.16-0.14c0.12,0,0.381-0.021,0.521-0.04
		c0.8-0.101,1.14-0.7,1.479-1.561L261.45,500.54z M263.41,507.62c0.079,0,0.079-0.04,0.06-0.12l-1.74-4.66
		c-0.1-0.26-0.199-0.26-0.3,0l-1.64,4.66c-0.02,0.08,0,0.12,0.061,0.12H263.41z"/>
	<path fill="#34434B" d="M273.809,508.12c0,1.64,0,2.979,0.08,3.68c0.061,0.5,0.141,0.82,0.681,0.9c0.239,0.04,0.64,0.08,0.8,0.08
		c0.12,0,0.141,0.08,0.141,0.14c0,0.08-0.08,0.14-0.281,0.14c-0.959,0-2.08-0.06-2.18-0.06c-0.08,0-1.3,0.06-1.82,0.06
		c-0.199,0-0.279-0.04-0.279-0.14c0-0.06,0.04-0.12,0.141-0.12c0.159,0,0.359-0.04,0.52-0.08c0.359-0.08,0.46-0.42,0.52-0.92
		c0.08-0.7,0.08-2.04,0.08-3.68v-7.14l-2.54,0.039c-1.1,0.021-1.521,0.141-1.78,0.54c-0.199,0.301-0.22,0.421-0.279,0.54
		c-0.04,0.141-0.1,0.16-0.18,0.16c-0.041,0-0.121-0.04-0.121-0.14c0-0.18,0.36-1.7,0.381-1.84c0.039-0.101,0.119-0.32,0.18-0.32
		c0.12,0,0.3,0.14,0.779,0.2c0.5,0.06,1.181,0.08,1.381,0.08h6.64c0.58,0,0.979-0.04,1.261-0.08c0.26-0.04,0.42-0.08,0.5-0.08
		s0.08,0.1,0.08,0.2c0,0.52-0.061,1.739-0.061,1.939c0,0.141-0.08,0.221-0.16,0.221s-0.12-0.061-0.141-0.301l-0.02-0.18
		c-0.06-0.52-0.439-0.9-2.119-0.94l-2.201-0.039V508.12z"/>
	<path fill="#34434B" d="M284.03,500.54c0.22-0.56,0.3-0.66,0.42-0.66c0.18,0,0.24,0.24,0.42,0.62c0.32,0.72,3.14,7.74,4.22,10.32
		c0.64,1.52,1.12,1.739,1.5,1.859c0.261,0.08,0.521,0.101,0.7,0.101c0.1,0,0.22,0.04,0.22,0.14s-0.2,0.14-0.399,0.14
		c-0.26,0-1.561,0-2.78-0.04c-0.34-0.02-0.62-0.02-0.62-0.119c0-0.08,0.04-0.08,0.12-0.12c0.101-0.04,0.28-0.181,0.16-0.46
		l-1.58-3.9c-0.04-0.08-0.06-0.1-0.16-0.1h-4.06c-0.08,0-0.141,0.04-0.181,0.14l-1,2.72c-0.159,0.42-0.26,0.84-0.26,1.141
		c0,0.34,0.3,0.46,0.601,0.46h0.159c0.14,0,0.181,0.06,0.181,0.14c0,0.1-0.101,0.14-0.26,0.14c-0.421,0-1.381-0.06-1.58-0.06
		c-0.181,0-1.061,0.06-1.781,0.06c-0.219,0-0.34-0.04-0.34-0.14c0-0.08,0.08-0.14,0.16-0.14c0.12,0,0.381-0.021,0.521-0.04
		c0.8-0.101,1.14-0.7,1.479-1.561L284.03,500.54z M285.99,507.62c0.079,0,0.079-0.04,0.06-0.12l-1.74-4.66
		c-0.1-0.26-0.199-0.26-0.3,0l-1.64,4.66c-0.02,0.08,0,0.12,0.061,0.12H285.99z"/>
	<path fill="#34434B" d="M303.668,498.44c0.24-0.66,0.32-0.78,0.44-0.78s0.2,0.1,0.44,0.72c0.3,0.76,3.439,9.021,4.66,12.061
		c0.72,1.779,1.299,2.1,1.72,2.22c0.3,0.1,0.6,0.12,0.8,0.12c0.12,0,0.2,0.02,0.2,0.12c0,0.119-0.181,0.159-0.4,0.159
		c-0.3,0-1.76,0-3.14-0.04c-0.381-0.02-0.6-0.02-0.6-0.14c0-0.08,0.06-0.12,0.14-0.14c0.12-0.04,0.239-0.221,0.12-0.54l-1.86-4.92
		c-0.04-0.08-0.08-0.12-0.181-0.12h-4.299c-0.101,0-0.16,0.06-0.201,0.16l-1.199,3.54c-0.18,0.5-0.28,0.979-0.28,1.34
		c0,0.399,0.421,0.58,0.761,0.58h0.199c0.141,0,0.2,0.04,0.2,0.12c0,0.119-0.12,0.159-0.3,0.159c-0.48,0-1.34-0.06-1.561-0.06
		c-0.22,0-1.32,0.06-2.26,0.06c-0.26,0-0.38-0.04-0.38-0.159c0-0.08,0.08-0.12,0.181-0.12c0.139,0,0.42-0.021,0.58-0.04
		c0.92-0.12,1.319-0.88,1.68-1.88L303.668,498.44z M305.749,506.44c0.101,0,0.101-0.061,0.08-0.141l-1.899-5.399
		c-0.101-0.301-0.2-0.301-0.3,0l-1.76,5.399c-0.041,0.101,0,0.141,0.06,0.141H305.749z"/>
	<path fill="#34434B" d="M315.069,510.74c0.04,1.399,0.2,1.819,0.68,1.939c0.32,0.08,0.721,0.101,0.881,0.101
		c0.08,0,0.14,0.06,0.14,0.14c0,0.1-0.12,0.14-0.319,0.14c-1,0-1.701-0.06-1.861-0.06c-0.159,0-0.899,0.06-1.699,0.06
		c-0.18,0-0.28-0.02-0.28-0.14c0-0.08,0.06-0.14,0.14-0.14c0.141,0,0.461-0.021,0.721-0.101c0.439-0.12,0.5-0.58,0.5-2.12v-9.739
		c0-0.681,0.1-0.86,0.24-0.86c0.199,0,0.5,0.34,0.68,0.521c0.279,0.279,2.84,3,5.561,5.8c1.739,1.8,3.619,3.819,4.159,4.38
		l-0.18-8.521c-0.021-1.1-0.12-1.479-0.66-1.58c-0.319-0.06-0.72-0.079-0.86-0.079c-0.119,0-0.14-0.101-0.14-0.16
		c0-0.101,0.14-0.12,0.34-0.12c0.8,0,1.64,0.04,1.84,0.04s0.78-0.04,1.5-0.04c0.181,0,0.32,0.02,0.32,0.12
		c0,0.06-0.08,0.16-0.2,0.16c-0.08,0-0.22,0-0.42,0.039c-0.58,0.12-0.62,0.461-0.62,1.48l-0.04,9.96c0,1.12-0.02,1.22-0.14,1.22
		c-0.181,0-0.36-0.14-1.341-1.04c-0.18-0.159-2.719-2.659-4.579-4.6c-2.04-2.14-4.021-4.22-4.56-4.82L315.069,510.74z"/>
	<path fill="#34434B" d="M333.668,500.54c0.221-0.56,0.301-0.66,0.421-0.66c0.18,0,0.239,0.24,0.42,0.62
		c0.319,0.72,3.14,7.74,4.22,10.32c0.641,1.52,1.12,1.739,1.5,1.859c0.26,0.08,0.52,0.101,0.7,0.101c0.101,0,0.22,0.04,0.22,0.14
		s-0.199,0.14-0.4,0.14c-0.26,0-1.56,0-2.779-0.04c-0.34-0.02-0.62-0.02-0.62-0.119c0-0.08,0.04-0.08,0.12-0.12
		c0.1-0.04,0.279-0.181,0.16-0.46l-1.58-3.9c-0.04-0.08-0.061-0.1-0.16-0.1h-4.061c-0.08,0-0.14,0.04-0.18,0.14l-1,2.72
		c-0.16,0.42-0.26,0.84-0.26,1.141c0,0.34,0.3,0.46,0.6,0.46h0.16c0.141,0,0.18,0.06,0.18,0.14c0,0.1-0.1,0.14-0.26,0.14
		c-0.42,0-1.38-0.06-1.58-0.06c-0.18,0-1.06,0.06-1.779,0.06c-0.221,0-0.34-0.04-0.34-0.14c0-0.08,0.08-0.14,0.16-0.14
		c0.119,0,0.379-0.021,0.52-0.04c0.8-0.101,1.14-0.7,1.48-1.561L333.668,500.54z M335.629,507.62c0.08,0,0.08-0.04,0.06-0.12
		l-1.739-4.66c-0.101-0.26-0.201-0.26-0.301,0l-1.64,4.66c-0.021,0.08,0,0.12,0.06,0.12H335.629z"/>
	<path fill="#34434B" d="M345.069,508.16c0,2.5,0.04,3.52,0.359,3.82c0.28,0.279,0.961,0.399,2.34,0.399
		c0.92,0,1.701-0.02,2.121-0.52c0.22-0.261,0.359-0.62,0.42-0.96c0.02-0.12,0.08-0.221,0.18-0.221c0.08,0,0.12,0.08,0.12,0.261
		c0,0.18-0.12,1.199-0.261,1.699c-0.119,0.4-0.18,0.46-1.119,0.46c-1.26,0-2.24-0.02-3.061-0.06c-0.8-0.021-1.4-0.04-1.92-0.04
		c-0.08,0-0.38,0-0.72,0.02c-0.36,0.021-0.74,0.04-1.021,0.04c-0.18,0-0.279-0.04-0.279-0.14c0-0.06,0.039-0.14,0.14-0.14
		c0.16,0,0.38-0.04,0.54-0.08c0.34-0.08,0.38-0.4,0.46-0.9c0.101-0.7,0.101-2.04,0.101-3.68v-3c0-2.64,0-3.12-0.041-3.66
		c-0.039-0.58-0.14-0.86-0.72-0.94c-0.14-0.02-0.44-0.039-0.6-0.039c-0.06,0-0.14-0.08-0.14-0.141c0-0.1,0.08-0.14,0.279-0.14
		c0.801,0,1.9,0.04,2,0.04c0.08,0,1.4-0.04,1.939-0.04c0.181,0,0.281,0.04,0.281,0.14c0,0.061-0.08,0.12-0.141,0.12
		c-0.12,0-0.38,0.021-0.58,0.04c-0.52,0.1-0.62,0.36-0.66,0.96c-0.02,0.54-0.02,1.021-0.02,3.66V508.16z"/>
	<path fill="#34434B" d="M355.508,508.64c0-0.92-0.119-1.26-0.379-1.739c-0.141-0.261-2.521-4.04-3.121-4.94
		c-0.42-0.64-0.84-1.02-1.16-1.24c-0.26-0.16-0.6-0.239-0.739-0.239c-0.101,0-0.181-0.08-0.181-0.16s0.061-0.12,0.221-0.12
		c0.34,0,1.66,0.04,1.74,0.04c0.119,0,0.84-0.04,1.52-0.04c0.2,0,0.24,0.04,0.24,0.12c0,0.06-0.12,0.12-0.28,0.18
		c-0.14,0.06-0.22,0.14-0.22,0.28c0,0.239,0.119,0.439,0.24,0.66l3.199,5.3c0.36-0.721,2.561-4.36,2.881-4.92
		c0.219-0.38,0.299-0.66,0.299-0.88c0-0.24-0.08-0.381-0.279-0.44c-0.16-0.04-0.26-0.12-0.26-0.2c0-0.06,0.1-0.1,0.279-0.1
		c0.461,0,1.08,0.04,1.221,0.04c0.119,0,1.38-0.04,1.72-0.04c0.12,0,0.22,0.04,0.22,0.1c0,0.08-0.08,0.181-0.22,0.181
		c-0.2,0-0.54,0.06-0.819,0.22c-0.341,0.2-0.5,0.38-0.881,0.84c-0.58,0.68-3.061,4.68-3.42,5.4c-0.3,0.6-0.22,1.14-0.22,1.699v1.46
		c0,0.28,0,1,0.06,1.7c0.04,0.5,0.16,0.82,0.68,0.9c0.24,0.04,0.641,0.08,0.801,0.08c0.1,0,0.14,0.08,0.14,0.14
		c0,0.08-0.101,0.14-0.28,0.14c-0.979,0-2.119-0.06-2.22-0.06c-0.08,0-1.2,0.06-1.72,0.06c-0.2,0-0.28-0.04-0.28-0.14
		c0-0.06,0.04-0.14,0.14-0.14c0.16,0,0.36-0.04,0.521-0.08c0.36-0.08,0.479-0.4,0.521-0.9c0.039-0.7,0.039-1.42,0.039-1.7V508.64z"
		/>
	<path fill="#34434B" d="M363.549,512.82c-0.24-0.12-0.261-0.181-0.261-0.641c0-0.84,0.08-1.52,0.101-1.8
		c0-0.18,0.039-0.28,0.14-0.28s0.159,0.061,0.159,0.2c0,0.141,0,0.38,0.061,0.62c0.28,1.24,1.6,1.68,2.78,1.68
		c1.739,0,2.64-0.979,2.64-2.26c0-1.22-0.66-1.8-2.22-2.96l-0.8-0.6c-1.9-1.42-2.52-2.46-2.52-3.641c0-2,1.579-3.199,3.899-3.199
		c0.7,0,1.399,0.1,1.819,0.199c0.34,0.08,0.48,0.08,0.621,0.08c0.14,0,0.18,0.021,0.18,0.12c0,0.08-0.08,0.641-0.08,1.8
		c0,0.261-0.02,0.38-0.141,0.38c-0.119,0-0.14-0.079-0.16-0.22c-0.02-0.2-0.159-0.66-0.26-0.84c-0.119-0.2-0.699-0.84-2.279-0.84
		c-1.28,0-2.34,0.64-2.34,1.84c0,1.08,0.539,1.7,2.279,2.88l0.5,0.34c2.141,1.46,2.881,2.641,2.881,4.101
		c0,1-0.381,2.08-1.641,2.899c-0.74,0.48-1.84,0.601-2.8,0.601C365.289,513.28,364.268,513.16,363.549,512.82z"/>
	<path fill="#34434B" d="M376.709,508.12c0,1.64,0,2.979,0.079,3.68c0.06,0.5,0.12,0.82,0.64,0.9c0.261,0.04,0.641,0.08,0.801,0.08
		c0.1,0,0.14,0.08,0.14,0.14c0,0.08-0.08,0.14-0.28,0.14c-0.979,0-2.119-0.06-2.199-0.06c-0.101,0-1.2,0.06-1.74,0.06
		c-0.18,0-0.28-0.04-0.28-0.14c0-0.06,0.04-0.14,0.14-0.14c0.16,0,0.381-0.04,0.541-0.08c0.34-0.08,0.399-0.4,0.459-0.9
		c0.08-0.7,0.101-2.04,0.101-3.68v-3c0-2.64,0-3.12-0.04-3.66c-0.04-0.58-0.18-0.84-0.561-0.92c-0.199-0.04-0.42-0.06-0.539-0.06
		c-0.08,0-0.141-0.08-0.141-0.141c0-0.1,0.08-0.14,0.28-0.14c0.58,0,1.68,0.04,1.78,0.04c0.08,0,1.22-0.04,1.76-0.04
		c0.199,0,0.279,0.04,0.279,0.14c0,0.061-0.08,0.141-0.14,0.141c-0.12,0-0.239,0-0.44,0.039c-0.479,0.101-0.58,0.341-0.619,0.94
		c-0.02,0.54-0.02,1.021-0.02,3.66V508.12z"/>
	<path fill="#34434B" d="M381.409,512.82c-0.24-0.12-0.26-0.181-0.26-0.641c0-0.84,0.08-1.52,0.1-1.8c0-0.18,0.04-0.28,0.141-0.28
		c0.1,0,0.159,0.061,0.159,0.2c0,0.141,0,0.38,0.06,0.62c0.281,1.24,1.601,1.68,2.781,1.68c1.739,0,2.64-0.979,2.64-2.26
		c0-1.22-0.66-1.8-2.22-2.96l-0.801-0.6c-1.9-1.42-2.52-2.46-2.52-3.641c0-2,1.58-3.199,3.9-3.199c0.699,0,1.399,0.1,1.819,0.199
		c0.34,0.08,0.479,0.08,0.62,0.08s0.18,0.021,0.18,0.12c0,0.08-0.08,0.641-0.08,1.8c0,0.261-0.02,0.38-0.14,0.38
		s-0.14-0.079-0.16-0.22c-0.021-0.2-0.159-0.66-0.26-0.84c-0.12-0.2-0.7-0.84-2.28-0.84c-1.279,0-2.34,0.64-2.34,1.84
		c0,1.08,0.54,1.7,2.28,2.88l0.5,0.34c2.14,1.46,2.88,2.641,2.88,4.101c0,1-0.38,2.08-1.641,2.899
		c-0.739,0.48-1.84,0.601-2.799,0.601C383.149,513.28,382.128,513.16,381.409,512.82z"/>
</g>
</svg>
