<?xml version="1.0" encoding="UTF-8" standalone="no"?>
<!-- Generator: Adobe Illustrator 12.0.0, SVG Export Plug-In . SVG Version: 6.00 Build 51448)  -->

<svg
   xmlns:dc="http://purl.org/dc/elements/1.1/"
   xmlns:cc="http://creativecommons.org/ns#"
   xmlns:rdf="http://www.w3.org/1999/02/22-rdf-syntax-ns#"
   xmlns:svg="http://www.w3.org/2000/svg"
   xmlns="http://www.w3.org/2000/svg"
   xmlns:sodipodi="http://sodipodi.sourceforge.net/DTD/sodipodi-0.dtd"
   xmlns:inkscape="http://www.inkscape.org/namespaces/inkscape"
   version="1.1"
   id="Ebene_1"
   width="181.57906"
   height="236.06227"
   viewBox="0 0 181.57906 236.06226"
   overflow="visible"
   enable-background="new 0 0 388.409 513.28"
   xml:space="preserve"
   inkscape:version="0.92.4 (5da689c313, 2019-01-14)"
   sodipodi:docname="MIDAS_transparent.svg"
   style="overflow:visible"
   inkscape:export-filename="C:\Users\Sergios\Desktop\MIDAS_transparent.png"
   inkscape:export-xdpi="600"
   inkscape:export-ydpi="600"><metadata
   id="metadata181"><rdf:RDF><cc:Work
       rdf:about=""><dc:format>image/svg+xml</dc:format><dc:type
         rdf:resource="http://purl.org/dc/dcmitype/StillImage" /><dc:title /></cc:Work></rdf:RDF></metadata><defs
   id="defs179"><clipPath
     clipPathUnits="userSpaceOnUse"
     id="clipPath1173"><path
       style="overflow:visible;opacity:0.41800005;fill:#ffffff;fill-opacity:1;fill-rule:nonzero;stroke:#ab7d5f;stroke-opacity:1"
       d="M -20.222878,-5.9570603 V 182.71677 H 216.84158 V -5.9570603 Z m 144.589848,14.60157 a 3.5083284,3.5083284 0 0 1 3.50976,3.5078103 3.5083284,3.5083284 0 0 1 -3.50976,3.50781 3.5083284,3.5083284 0 0 1 -3.50782,-3.50781 3.5083284,3.5083284 0 0 1 3.50782,-3.5078103 z m -69.396488,1.3457 a 3.5083284,3.5083284 0 0 1 3.50781,3.5078103 3.5083284,3.5083284 0 0 1 -3.50781,3.50781 3.5083284,3.5083284 0 0 1 -3.50781,-3.50781 3.5083284,3.5083284 0 0 1 3.50781,-3.5078103 z M 69.964618,23.349585 a 3.5083284,3.5083284 0 0 1 3.50781,3.507812 3.5083284,3.5083284 0 0 1 -3.50781,3.509766 3.5083284,3.5083284 0 0 1 -3.50781,-3.509766 3.5083284,3.5083284 0 0 1 3.50781,-3.507812 z m 33.353522,6.632812 a 3.5083284,3.5083284 0 0 1 3.50781,3.507813 3.5083284,3.5083284 0 0 1 -3.50781,3.507812 3.5083284,3.5083284 0 0 1 -3.507822,-3.507812 3.5083284,3.5083284 0 0 1 3.507822,-3.507813 z m -77.664068,3.941407 a 3.5083284,3.5083284 0 0 1 3.50782,3.507812 3.5083284,3.5083284 0 0 1 -3.50782,3.507813 3.5083284,3.5083284 0 0 1 -3.50781,-3.507813 3.5083284,3.5083284 0 0 1 3.50781,-3.507812 z m 16.24414,1.537109 a 3.5083284,3.5083284 0 0 1 3.50782,3.507812 3.5083284,3.5083284 0 0 1 -3.50782,3.507813 3.5083284,3.5083284 0 0 1 -3.50781,-3.507813 3.5083284,3.5083284 0 0 1 3.50781,-3.507812 z m 103.615238,0.769531 a 3.5083284,3.5083284 0 0 1 3.50977,3.507813 3.5083284,3.5083284 0 0 1 -3.50977,3.507812 3.5083284,3.5083284 0 0 1 -3.50781,-3.507812 3.5083284,3.5083284 0 0 1 3.50781,-3.507813 z m -17.39648,10.38086 a 3.5083284,3.5083284 0 0 1 3.50781,3.507812 3.5083284,3.5083284 0 0 1 -3.50781,3.507813 3.5083284,3.5083284 0 0 1 -3.50782,-3.507813 3.5083284,3.5083284 0 0 1 3.50782,-3.507812 z m -72.281258,0.0957 a 3.5083284,3.5083284 0 0 1 3.50782,3.507812 3.5083284,3.5083284 0 0 1 -3.50782,3.507813 3.5083284,3.5083284 0 0 1 -3.50781,-3.507813 3.5083284,3.5083284 0 0 1 3.50781,-3.507812 z m 110.824218,3.171875 a 3.5083284,3.5083284 0 0 1 3.50782,3.507812 3.5083284,3.5083284 0 0 1 -3.50782,3.507813 3.5083284,3.5083284 0 0 1 -3.50781,-3.507813 3.5083284,3.5083284 0 0 1 3.50781,-3.507812 z M 28.825952,66.892551 a 3.5083284,3.5083284 0 0 1 3.50781,3.507812 3.5083284,3.5083284 0 0 1 -3.50781,3.507813 3.5083284,3.5083284 0 0 1 -3.50781,-3.507813 3.5083284,3.5083284 0 0 1 3.50781,-3.507812 z M 154.74197,77.27146 a 3.5083284,3.5083284 0 0 1 3.50781,3.509765 3.5083284,3.5083284 0 0 1 -3.50781,3.507813 3.5083284,3.5083284 0 0 1 -3.50977,-3.507813 3.5083284,3.5083284 0 0 1 3.50977,-3.509765 z M 8.4489923,88.998022 a 3.5083284,3.5083284 0 0 1 3.5078197,3.509766 3.5083284,3.5083284 0 0 1 -3.5078197,3.507812 3.5083284,3.5083284 0 0 1 -3.50781,-3.507812 3.5083284,3.5083284 0 0 1 3.50781,-3.509766 z m 29.0273497,2.691407 a 3.5083284,3.5083284 0 0 1 3.50781,3.509761 3.5083284,3.5083284 0 0 1 -3.50781,3.50782 3.5083284,3.5083284 0 0 1 -3.50781,-3.50782 3.5083284,3.5083284 0 0 1 3.50781,-3.509761 z M 145.70681,98.32224 a 3.5083284,3.5083284 0 0 1 3.50781,3.50781 3.5083284,3.5083284 0 0 1 -3.50781,3.50977 3.5083284,3.5083284 0 0 1 -3.50977,-3.50977 3.5083284,3.5083284 0 0 1 3.50977,-3.50781 z m 26.81641,3.74805 a 3.5083284,3.5083284 0 0 1 3.50781,3.50976 3.5083284,3.5083284 0 0 1 -3.50781,3.50781 3.5083284,3.5083284 0 0 1 -3.50782,-3.50781 3.5083284,3.5083284 0 0 1 3.50782,-3.50976 z M 38.150172,119.37302 a 3.5083284,3.5083284 0 0 1 3.50781,3.50781 3.5083284,3.5083284 0 0 1 -3.50781,3.50781 3.5083284,3.5083284 0 0 1 -3.50977,-3.50781 3.5083284,3.5083284 0 0 1 3.50977,-3.50781 z m 57.478506,0.96094 a 3.5083284,3.5083284 0 0 1 3.50782,3.50781 3.5083284,3.5083284 0 0 1 -3.50782,3.50781 3.5083284,3.5083284 0 0 1 -3.50781,-3.50781 3.5083284,3.5083284 0 0 1 3.50781,-3.50781 z m 32.488292,3.45898 a 3.5083284,3.5083284 0 0 1 3.50781,3.50977 3.5083284,3.5083284 0 0 1 -3.50781,3.50781 3.5083284,3.5083284 0 0 1 -3.50782,-3.50781 3.5083284,3.5083284 0 0 1 3.50782,-3.50977 z m -72.570318,0.0977 a 3.5083284,3.5083284 0 0 1 3.50781,3.50781 3.5083284,3.5083284 0 0 1 -3.50781,3.50781 3.5083284,3.5083284 0 0 1 -3.50781,-3.50781 3.5083284,3.5083284 0 0 1 3.50781,-3.50781 z m -28.6914,13.21484 a 3.5083284,3.5083284 0 0 1 3.50781,3.50977 3.5083284,3.5083284 0 0 1 -3.50781,3.50781 3.5083284,3.5083284 0 0 1 -3.50782,-3.50781 3.5083284,3.5083284 0 0 1 3.50782,-3.50977 z m 36.861316,5.04688 a 3.5083284,3.5083284 0 0 1 3.50977,3.50781 3.5083284,3.5083284 0 0 1 -3.50977,3.50976 3.5083284,3.5083284 0 0 1 -3.507806,-3.50976 3.5083284,3.5083284 0 0 1 3.507806,-3.50781 z m 54.019542,0.48046 a 3.5083284,3.5083284 0 0 1 3.50781,3.50782 3.5083284,3.5083284 0 0 1 -3.50781,3.50976 3.5083284,3.5083284 0 0 1 -3.50782,-3.50976 3.5083284,3.5083284 0 0 1 3.50782,-3.50782 z m 31.14258,1.92188 a 3.5083284,3.5083284 0 0 1 3.50781,3.50977 3.5083284,3.5083284 0 0 1 -3.50781,3.50781 3.5083284,3.5083284 0 0 1 -3.50977,-3.50781 3.5083284,3.5083284 0 0 1 3.50977,-3.50977 z m -43.54297,21.91602 a 3.5083284,3.5083284 0 0 1 3.50976,3.50781 3.5083284,3.5083284 0 0 1 -3.50976,3.50781 3.5083284,3.5083284 0 0 1 -3.50782,-3.50781 3.5083284,3.5083284 0 0 1 3.50782,-3.50781 z"
       id="path1175"
       inkscape:connector-curvature="0" /></clipPath><clipPath
     clipPathUnits="userSpaceOnUse"
     id="clipPath1198"><path
       style="opacity:0.41800005;fill:#ffffff;fill-opacity:1;fill-rule:nonzero;stroke:#ab7d5f;stroke-width:2.21760201;stroke-opacity:1"
       d="M -51.746932,-20.370224 V 398.4383 H 473.45927 V -20.370224 Z M 268.58571,12.041601 a 7.7725521,7.787608 0 0 1 7.77573,7.786457 7.7725521,7.787608 0 0 1 -7.77573,7.786457 7.7725521,7.787608 0 0 1 -7.77142,-7.786457 7.7725521,7.787608 0 0 1 7.77142,-7.786457 z m -153.74496,2.987116 a 7.7725521,7.787608 0 0 1 7.77141,7.786457 7.7725521,7.787608 0 0 1 -7.77141,7.786458 7.7725521,7.787608 0 0 1 -7.7714,-7.786458 7.7725521,7.787608 0 0 1 7.7714,-7.786457 z m 33.21888,29.654458 a 7.7725521,7.787608 0 0 1 7.77141,7.786461 7.7725521,7.787608 0 0 1 -7.77141,7.7908 7.7725521,7.787608 0 0 1 -7.7714,-7.7908 7.7725521,7.787608 0 0 1 7.7714,-7.786461 z m 73.8933,14.723177 a 7.7725521,7.787608 0 0 1 7.7714,7.786464 7.7725521,7.787608 0 0 1 -7.7714,7.786461 7.7725521,7.787608 0 0 1 -7.77142,-7.786461 7.7725521,7.787608 0 0 1 7.77142,-7.786464 z M 49.891497,68.155285 a 7.7725521,7.787608 0 0 1 7.771425,7.786462 7.7725521,7.787608 0 0 1 -7.771425,7.786464 7.7725521,7.787608 0 0 1 -7.771404,-7.786464 7.7725521,7.787608 0 0 1 7.771404,-7.786462 z m 35.9882,3.411996 a 7.7725521,7.787608 0 0 1 7.771426,7.786462 7.7725521,7.787608 0 0 1 -7.771426,7.786464 7.7725521,7.787608 0 0 1 -7.771404,-7.786464 7.7725521,7.787608 0 0 1 7.771404,-7.786462 z m 229.555143,1.708166 a 7.7725521,7.787608 0 0 1 7.77575,7.786464 7.7725521,7.787608 0 0 1 -7.77575,7.786462 7.7725521,7.787608 0 0 1 -7.7714,-7.786462 7.7725521,7.787608 0 0 1 7.7714,-7.786464 z m -38.54116,23.042902 a 7.7725521,7.787608 0 0 1 7.7714,7.786461 7.7725521,7.787608 0 0 1 -7.7714,7.78647 7.7725521,7.787608 0 0 1 -7.77143,-7.78647 7.7725521,7.787608 0 0 1 7.77143,-7.786461 z m -160.13605,0.21243 a 7.7725521,7.787608 0 0 1 7.77143,7.786461 7.7725521,7.787608 0 0 1 -7.77143,7.78646 7.7725521,7.787608 0 0 1 -7.7714,-7.78646 7.7725521,7.787608 0 0 1 7.7714,-7.786461 z m 245.52634,7.040771 a 7.7725521,7.787608 0 0 1 7.77142,7.78646 7.7725521,7.787608 0 0 1 -7.77142,7.78646 7.7725521,7.787608 0 0 1 -7.77141,-7.78646 7.7725521,7.787608 0 0 1 7.77141,-7.78646 z M 56.918662,141.33762 a 7.7725521,7.787608 0 0 1 7.771403,7.78647 7.7725521,7.787608 0 0 1 -7.771403,7.78646 7.7725521,7.787608 0 0 1 -7.771404,-7.78646 7.7725521,7.787608 0 0 1 7.771404,-7.78647 z M 335.88023,164.3762 a 7.7725521,7.787608 0 0 1 7.77141,7.79079 7.7725521,7.787608 0 0 1 -7.77141,7.78647 7.7725521,7.787608 0 0 1 -7.77574,-7.78647 7.7725521,7.787608 0 0 1 7.77574,-7.79079 z M 11.774375,190.40622 a 7.7725521,7.787608 0 0 1 7.771426,7.7908 7.7725521,7.787608 0 0 1 -7.771426,7.78646 7.7725521,7.787608 0 0 1 -7.7714033,-7.78646 7.7725521,7.787608 0 0 1 7.7714033,-7.7908 z m 64.308857,5.97425 a 7.7725521,7.787608 0 0 1 7.771404,7.79079 7.7725521,7.787608 0 0 1 -7.771404,7.78647 7.7725521,7.787608 0 0 1 -7.771403,-7.78647 7.7725521,7.787608 0 0 1 7.771403,-7.79079 z m 239.779988,14.72317 a 7.7725521,7.787608 0 0 1 7.7714,7.78647 7.7725521,7.787608 0 0 1 -7.7714,7.79079 7.7725521,7.787608 0 0 1 -7.77575,-7.79079 7.7725521,7.787608 0 0 1 7.77575,-7.78647 z m 59.41061,8.31972 a 7.7725521,7.787608 0 0 1 7.77141,7.79079 7.7725521,7.787608 0 0 1 -7.77141,7.78646 7.7725521,7.787608 0 0 1 -7.77142,-7.78646 7.7725521,7.787608 0 0 1 7.77142,-7.79079 z M 77.576074,257.83108 a 7.7725521,7.787608 0 0 1 7.771403,7.78646 7.7725521,7.787608 0 0 1 -7.771403,7.78646 7.7725521,7.787608 0 0 1 -7.775746,-7.78646 7.7725521,7.787608 0 0 1 7.775746,-7.78646 z m 127.341186,2.13305 a 7.7725521,7.787608 0 0 1 7.77143,7.78646 7.7725521,7.787608 0 0 1 -7.77143,7.78645 7.7725521,7.787608 0 0 1 -7.7714,-7.78645 7.7725521,7.787608 0 0 1 7.7714,-7.78646 z m 71.97642,7.67806 a 7.7725521,7.787608 0 0 1 7.7714,7.79081 7.7725521,7.787608 0 0 1 -7.7714,7.78646 7.7725521,7.787608 0 0 1 -7.77143,-7.78646 7.7725521,7.787608 0 0 1 7.77143,-7.79081 z m -160.77645,0.21687 a 7.7725521,7.787608 0 0 1 7.77141,7.78646 7.7725521,7.787608 0 0 1 -7.77141,7.78646 7.7725521,7.787608 0 0 1 -7.7714,-7.78646 7.7725521,7.787608 0 0 1 7.7714,-7.78646 z m -63.56457,29.33363 a 7.7725521,7.787608 0 0 1 7.771403,7.79081 7.7725521,7.787608 0 0 1 -7.771403,7.78646 7.7725521,7.787608 0 0 1 -7.771426,-7.78646 7.7725521,7.787608 0 0 1 7.771426,-7.79081 z m 81.66468,11.20281 a 7.7725521,7.787608 0 0 1 7.77575,7.78645 7.7725521,7.787608 0 0 1 -7.77575,7.79079 7.7725521,7.787608 0 0 1 -7.7714,-7.79079 7.7725521,7.787608 0 0 1 7.7714,-7.78645 z m 119.67799,1.0665 a 7.7725521,7.787608 0 0 1 7.7714,7.78648 7.7725521,7.787608 0 0 1 -7.7714,7.79078 7.7725521,7.787608 0 0 1 -7.77143,-7.79078 7.7725521,7.787608 0 0 1 7.77143,-7.78648 z m 68.99506,4.26609 a 7.7725521,7.787608 0 0 1 7.7714,7.79081 7.7725521,7.787608 0 0 1 -7.7714,7.78645 7.7725521,7.787608 0 0 1 -7.77575,-7.78645 7.7725521,7.787608 0 0 1 7.77575,-7.79081 z m -96.4676,48.64806 a 7.7725521,7.787608 0 0 1 7.77572,7.78646 7.7725521,7.787608 0 0 1 -7.77572,7.78645 7.7725521,7.787608 0 0 1 -7.77142,-7.78645 7.7725521,7.787608 0 0 1 7.77142,-7.78646 z"
       id="path1200"
       inkscape:connector-curvature="0" /></clipPath></defs><sodipodi:namedview
   pagecolor="#ffffff"
   bordercolor="#666666"
   borderopacity="1"
   objecttolerance="10"
   gridtolerance="10"
   guidetolerance="10"
   inkscape:pageopacity="0"
   inkscape:pageshadow="2"
   inkscape:window-width="2560"
   inkscape:window-height="1315"
   id="namedview177"
   showgrid="false"
   inkscape:zoom="1.839152"
   inkscape:cx="-0.22455345"
   inkscape:cy="47.128088"
   inkscape:window-x="-13"
   inkscape:window-y="-13"
   inkscape:window-maximized="1"
   inkscape:current-layer="Ebene_1"
   inkscape:showpageshadow="false"
   borderlayer="false"
   showborder="true"
   fit-margin-top="0"
   fit-margin-left="0"
   fit-margin-right="0"
   fit-margin-bottom="0" /><line
   x1="130.45407"
   y1="49.952286"
   x2="143.30777"
   y2="42.087517"
   id="line3"
   style="fill:none;stroke:#b3a06c;stroke-width:4.66666651;stroke-miterlimit:4;stroke-dasharray:none" /><line
   x1="147.36121"
   y1="41.787106"
   x2="164.53581"
   y2="53.32093"
   id="line5"
   style="fill:none;stroke:#b3a06c;stroke-width:4.5333333;stroke-miterlimit:4;stroke-dasharray:none" /><line
   x1="56.569206"
   y1="16.340923"
   x2="68.154823"
   y2="26.64415"
   id="line7"
   style="fill:none;stroke:#b3a06c;stroke-width:4.66666651;stroke-miterlimit:4;stroke-dasharray:none" /><line
   x1="69.381447"
   y1="30.034529"
   x2="57.28582"
   y2="49.441299"
   id="line9"
   style="fill:none;stroke:#b3a06c;stroke-width:4.66666651;stroke-miterlimit:4;stroke-dasharray:none" /><line
   x1="128.10164"
   y1="130.19176"
   x2="119.92217"
   y2="144.35568"
   id="line11"
   style="fill:none;stroke:#b3a06c;stroke-width:4.66666651;stroke-miterlimit:4;stroke-dasharray:none" /><line
   x1="119.98593"
   y1="147.13748"
   x2="147.08365"
   y2="149.08374"
   id="line13"
   style="fill:none;stroke:#b3a06c;stroke-width:4.66666651;stroke-miterlimit:4;stroke-dasharray:none" /><ellipse
   cx="117.82584"
   cy="147.14317"
   id="circle15"
   style="fill:none;stroke:#b3a06c;stroke-width:3.60749984"
   rx="3.3853052"
   ry="3.3787603" /><line
   x1="27.950693"
   y1="140.14912"
   x2="37.09478"
   y2="126.06679"
   id="line17"
   style="fill:none;stroke:#b3a06c;stroke-width:4.66666651;stroke-miterlimit:4;stroke-dasharray:none" /><line
   x1="40.332302"
   y1="124.54179"
   x2="53.618706"
   y2="128.03323"
   id="line19"
   style="fill:none;stroke:#b3a06c;stroke-width:4.62488317;stroke-miterlimit:4;stroke-dasharray:none" /><line
   x1="55.803459"
   y1="53.804497"
   x2="55.728046"
   y2="126.23206"
   id="line23"
   style="fill:none;stroke:#a1163a;stroke-width:5.24809837" /><ellipse
   cx="55.728519"
   cy="128.34013"
   id="circle25"
   style="fill:none;stroke:#a1163a;stroke-width:3.60749984"
   rx="3.8375821"
   ry="3.830163" /><line
   x1="128.24902"
   y1="53.61322"
   x2="128.18982"
   y2="125.95734"
   id="line27"
   style="fill:none;stroke:#a1163a;stroke-width:5.16849852" /><ellipse
   cx="128.18941"
   cy="128.33966"
   id="circle29"
   style="fill:none;stroke:#a1163a;stroke-width:3.60749984"
   rx="3.8384848"
   ry="3.8310637" /><path
   d="M 91.37082,88.695984"
   id="path31"
   inkscape:connector-curvature="0"
   style="fill:none;stroke:#a1163a;stroke-width:5.41125059" /><path
   d="M 55.803447,51.304369"
   id="path33"
   inkscape:connector-curvature="0"
   style="fill:none;stroke:#a1163a;stroke-width:5.41125059" /><line
   x1="72.422806"
   y1="29.005163"
   x2="101.59505"
   y2="34.264843"
   id="line35"
   style="fill:none;stroke:#b3a06c;stroke-width:4.66666651;stroke-miterlimit:4;stroke-dasharray:none" /><line
   x1="123.11393"
   y1="14.721874"
   x2="105.08913"
   y2="32.875801"
   id="line37"
   style="fill:none;stroke:#b3a06c;stroke-width:4.66666651;stroke-miterlimit:4;stroke-dasharray:none" /><line
   x1="29.662066"
   y1="74.001549"
   x2="36.582256"
   y2="94.445465"
   id="line39"
   style="fill:none;stroke:#b3a06c;stroke-width:4.66666651;stroke-miterlimit:4;stroke-dasharray:none" /><line
   x1="38.338467"
   y1="121.73373"
   x2="37.520054"
   y2="98.767029"
   id="line41"
   style="fill:none;stroke:#b3a06c;stroke-width:4.66666651;stroke-miterlimit:4;stroke-dasharray:none" /><line
   x1="35.506149"
   y1="96.365074"
   x2="10.555006"
   y2="93.651726"
   id="line43"
   style="fill:none;stroke:#b3a06c;stroke-width:4.66666651;stroke-miterlimit:4;stroke-dasharray:none" /><ellipse
   cx="103.54166"
   cy="34.521832"
   id="circle45"
   style="fill:none;stroke:#b3a06c;stroke-width:3.60749984"
   rx="3.3853052"
   ry="3.3787603" /><ellipse
   cx="70.190987"
   cy="27.979223"
   id="circle47"
   style="fill:none;stroke:#b3a06c;stroke-width:3.60749984"
   rx="3.3853052"
   ry="3.3787603" /><ellipse
   cx="29.009882"
   cy="71.708038"
   id="circle49"
   style="fill:none;stroke:#b3a06c;stroke-width:3.60749984"
   rx="3.3853052"
   ry="3.3787603" /><ellipse
   cx="37.522797"
   cy="96.3545"
   id="circle51"
   style="fill:none;stroke:#b3a06c;stroke-width:3.60749984"
   rx="3.3853052"
   ry="3.3787603" /><ellipse
   cx="8.4308376"
   cy="93.6623"
   id="circle53"
   style="fill:none;stroke:#b3a06c;stroke-width:3.60749984"
   rx="3.3853052"
   ry="3.3787603" /><ellipse
   cx="26.999014"
   cy="141.68759"
   id="circle55"
   style="fill:none;stroke:#b3a06c;stroke-width:3.60749984"
   rx="3.3853052"
   ry="3.3787603"
   clip-path="none" /><ellipse
   cx="148.91785"
   cy="149.07805"
   id="circle57"
   style="fill:none;stroke:#b3a06c;stroke-width:3.60749984"
   rx="3.3853052"
   ry="3.3787603" /><ellipse
   cx="166.77148"
   cy="54.50745"
   id="circle59"
   style="fill:none;stroke:#b3a06c;stroke-width:3.60749984"
   rx="3.3853052"
   ry="3.3787603" /><ellipse
   cx="38.335266"
   cy="124.0446"
   id="circle61"
   style="fill:none;stroke:#b3a06c;stroke-width:3.60749984"
   rx="3.3853052"
   ry="3.3787603" /><path
   d="M 103.54167,34.52185"
   id="path63"
   inkscape:connector-curvature="0"
   style="fill:none;stroke:#b3a06c;stroke-width:3.60749984" /><ellipse
   cx="124.46917"
   cy="13.268081"
   id="circle65"
   style="fill:none;stroke:#b3a06c;stroke-width:3.60749984"
   rx="3.3853052"
   ry="3.3787603" /><line
   x1="146.37506"
   y1="43.028271"
   x2="153.91891"
   y2="79.606903"
   id="line67"
   style="fill:none;stroke:#b3a06c;stroke-width:4.66666651;stroke-miterlimit:4;stroke-dasharray:none" /><line
   x1="153.162"
   y1="85.565132"
   x2="146.99391"
   y2="100.95725"
   id="line69"
   style="fill:none;stroke:#b3a06c;stroke-width:4.66666651;stroke-miterlimit:4;stroke-dasharray:none" /><line
   x1="156.24814"
   y1="84.052101"
   x2="170.78662"
   y2="104.09064"
   id="line71"
   style="fill:none;stroke:#b3a06c;stroke-width:4.66666651;stroke-miterlimit:4;stroke-dasharray:none" /><ellipse
   cx="154.88005"
   cy="81.938477"
   id="circle73"
   style="fill:none;stroke:#b3a06c;stroke-width:3.60749984"
   rx="3.3853052"
   ry="3.3787603" /><ellipse
   cx="145.85257"
   cy="102.66153"
   id="circle75"
   style="fill:none;stroke:#b3a06c;stroke-width:3.60749984"
   rx="3.3853052"
   ry="3.3787603" /><ellipse
   cx="55.305134"
   cy="14.621377"
   id="circle77"
   style="fill:none;stroke:#b3a06c;stroke-width:3.60749984"
   rx="3.3853052"
   ry="3.3787603" /><line
   x1="27.454433"
   y1="38.51984"
   x2="39.710682"
   y2="40.057816"
   id="line79"
   style="fill:none;stroke:#b3a06c;stroke-width:4.66666651;stroke-miterlimit:4;stroke-dasharray:none" /><ellipse
   cx="25.722521"
   cy="38.535816"
   id="circle81"
   style="fill:none;stroke:#b3a06c;stroke-width:3.60749984"
   rx="3.3853052"
   ry="3.3787603" /><ellipse
   cx="42.036541"
   cy="40.04184"
   id="circle83"
   style="fill:none;stroke:#b3a06c;stroke-width:3.60749984"
   rx="3.3853052"
   ry="3.3787603" /><line
   x1="96.873489"
   y1="127.13364"
   x2="104.62302"
   y2="168.68967"
   id="line85"
   style="fill:none;stroke:#b3a06c;stroke-width:4.667;stroke-miterlimit:4;stroke-dasharray:none" /><g
   id="g1196"
   transform="matrix(0.92827053,0,0,0.93953393,6.8128629,11.292284)"
   style="stroke-width:4.99704504;stroke-miterlimit:4;stroke-dasharray:none"><line
     style="fill:none;stroke:#b3a06c;stroke-width:4.99704504;stroke-miterlimit:4;stroke-dasharray:none"
     id="line87"
     y2="122.12107"
     x2="94.106216"
     y1="142.9259"
     x1="63.693363" /></g><ellipse
   cx="63.747177"
   cy="146.84761"
   id="circle89"
   style="fill:none;stroke:#b3a06c;stroke-width:3.60749984"
   rx="3.3853052"
   ry="3.3787603" /><ellipse
   cx="95.782539"
   cy="124.8537"
   id="circle91"
   style="fill:none;stroke:#b3a06c;stroke-width:3.60749984"
   rx="3.3853052"
   ry="3.3787603" /><ellipse
   cx="105.43246"
   cy="171.01341"
   id="circle93"
   style="fill:none;stroke:#b3a06c;stroke-width:3.60749984"
   rx="3.3853052"
   ry="3.3787603" /><ellipse
   cx="145.70226"
   cy="40.79282"
   id="circle95"
   style="fill:none;stroke:#b3a06c;stroke-width:3.60749984"
   rx="3.3853052"
   ry="3.3787603" /><ellipse
   cx="172.6353"
   cy="106.49262"
   id="circle97"
   style="fill:none;stroke:#b3a06c;stroke-width:3.60749984"
   rx="3.3853052"
   ry="3.3787603" /><path
   d="M 90.247805,88.109434"
   id="path99"
   inkscape:connector-curvature="0"
   style="fill:none;stroke:#a1163a;stroke-width:5.41125059" /><g
   id="g101"
   transform="matrix(0.44155692,0,0,0.4377688,6.3832612,6.4067419)"
   clip-path="url(#clipPath1198)"><path
     d="m 116.452,110.17 71.914,75.748 c 3.787,3.989 9.944,3.952 13.682,-0.083 L 276.952,105"
     id="path103"
     inkscape:connector-curvature="0"
     style="fill:none;stroke:#a1163a;stroke-width:12" /></g><ellipse
   cx="55.803444"
   cy="51.304367"
   id="circle105"
   style="fill:none;stroke:#a1163a;stroke-width:3.60749984"
   rx="3.8384848"
   ry="3.8310637" /><ellipse
   cx="128.24899"
   cy="51.304367"
   id="circle107"
   style="fill:none;stroke:#a1163a;stroke-width:3.60749984"
   rx="3.8384848"
   ry="3.8310637" />

<g
   style="font-style:normal;font-variant:normal;font-weight:normal;font-stretch:normal;font-size:31.5625px;line-height:125%;font-family:ISOCPEUR;-inkscape-font-specification:'ISOCPEUR, Normal';text-align:start;letter-spacing:0px;word-spacing:0px;writing-mode:lr-tb;text-anchor:start;fill:#34434b;fill-opacity:1;stroke:none;stroke-width:1px;stroke-linecap:butt;stroke-linejoin:miter;stroke-opacity:1"
   id="text4230"
   transform="matrix(0.45137406,0,0,0.45050141,-1.2737051,-5.8547985)"><path
     d="m 17.847981,510.7063 q 1.011109,0 1.011109,1.01111 l 0,18.19995 q 0,1.01111 -1.011109,1.01111 -1.011108,0 -1.011108,-1.01111 l 0,-14.87555 -4.121033,6.17389 q -0.413635,0.61279 -0.934509,0.61279 -0.536194,0 -0.949829,-0.61279 l -4.1057129,-6.17389 0,14.87555 q 0,1.01111 -1.0111084,1.01111 -1.0111084,0 -1.0111084,-1.01111 l 0,-18.19995 q 0,-1.01111 1.0111084,-1.01111 0.5515136,0 0.8885498,0.50555 l 5.1781005,7.76715 5.20874,-7.82843 q 0.291077,-0.44427 0.85791,-0.44427 z"
     style="font-style:normal;font-variant:normal;font-weight:normal;font-stretch:normal;font-size:31.375px;line-height:125%;font-family:ISOCPEUR;-inkscape-font-specification:'ISOCPEUR, Normal';text-align:start;writing-mode:lr-tb;text-anchor:start"
     id="path9297"
     inkscape:connector-curvature="0" /><path
     d="m 27.959065,518.79517 q -1.256225,0 -2.144775,0.88855 -0.88855,0.88855 -0.88855,2.14477 l 0,1.01111 6.066651,0 0,-1.01111 q 0,-1.25622 -0.88855,-2.14477 -0.88855,-0.88855 -2.144776,-0.88855 z m -3.033325,6.06665 0,2.02221 q 0,0.82727 0.597473,1.42475 0.597474,0.59747 1.424744,0.59747 l 5.055542,0 q 1.011108,0 1.011108,1.01111 0,1.01111 -1.011108,1.01111 l -5.055542,0 q -1.7005,0 -2.880127,-1.16431 -1.164307,-1.17963 -1.164307,-2.88013 l 0,-5.05554 q 0,-2.09881 1.470704,-3.56952 1.486023,-1.48602 3.584838,-1.48602 2.129456,0 3.584839,1.4707 1.470703,1.45539 1.470703,3.58484 l 0,3.03333 -8.088867,0 z"
     style="font-style:normal;font-variant:normal;font-weight:normal;font-stretch:normal;font-size:31.375px;line-height:125%;font-family:ISOCPEUR;-inkscape-font-specification:'ISOCPEUR, Normal';text-align:start;writing-mode:lr-tb;text-anchor:start"
     id="path9299"
     inkscape:connector-curvature="0" /><path
     d="m 37.059041,520.81738 q 0,-1.10302 0.536194,-2.03753 1.148987,-2.0069 3.50824,-2.0069 l 4.044433,0 0,-5.05554 q 0,-1.01111 1.011109,-1.01111 1.011108,0 1.011108,1.01111 l 0,18.19995 q 0,1.01111 -1.011108,1.01111 l -5.055542,0 q -1.700501,0 -2.880127,-1.16431 -1.164307,-1.17963 -1.164307,-2.88013 l 0,-6.06665 z m 4.044434,-2.02221 q -0.842591,0 -1.440064,0.59747 -0.582153,0.58215 -0.582153,1.42474 l 0,6.06665 q 0,0.82727 0.597473,1.42475 0.597473,0.59747 1.424744,0.59747 l 4.044433,0 0,-10.11108 -4.044433,0 z"
     style="font-style:normal;font-variant:normal;font-weight:normal;font-stretch:normal;font-size:31.375px;line-height:125%;font-family:ISOCPEUR;-inkscape-font-specification:'ISOCPEUR, Normal';text-align:start;writing-mode:lr-tb;text-anchor:start"
     id="path9301"
     inkscape:connector-curvature="0" /><path
     d="m 51.214559,517.78406 q 0,-1.01111 1.011108,-1.01111 1.011108,0 1.011108,1.01111 l 0,12.1333 q 0,1.01111 -1.011108,1.01111 -1.011108,0 -1.011108,-1.01111 l 0,-12.1333 z m 0,-5.05554 0,-1.01111 q 0,-1.01111 1.011108,-1.01111 1.011108,0 1.011108,1.01111 l 0,1.01111 q 0,1.0111 -1.011108,1.0111 -1.011108,0 -1.011108,-1.0111 z"
     style="font-style:normal;font-variant:normal;font-weight:normal;font-stretch:normal;font-size:31.375px;line-height:125%;font-family:ISOCPEUR;-inkscape-font-specification:'ISOCPEUR, Normal';text-align:start;writing-mode:lr-tb;text-anchor:start"
     id="path9303"
     inkscape:connector-curvature="0" /><path
     d="m 59.303426,520.81738 0,6.06665 q 0,0.82727 0.597473,1.42475 0.597473,0.59747 1.424744,0.59747 l 3.033325,0 q 1.011108,0 1.011108,1.01111 0,1.01111 -1.011108,1.01111 l -3.033325,0 q -1.700501,0 -2.880127,-1.16431 -1.164307,-1.17963 -1.164307,-2.88013 l 0,-6.06665 q 0,-1.7005 1.164307,-2.8648 1.179626,-1.17963 2.880127,-1.17963 l 3.033325,0 q 1.011108,0 1.011108,1.01111 0,1.01111 -1.011108,1.01111 l -3.033325,0 q -0.842591,0 -1.440064,0.59747 -0.582153,0.58215 -0.582153,1.42474 z"
     style="font-style:normal;font-variant:normal;font-weight:normal;font-stretch:normal;font-size:31.375px;line-height:125%;font-family:ISOCPEUR;-inkscape-font-specification:'ISOCPEUR, Normal';text-align:start;writing-mode:lr-tb;text-anchor:start"
     id="path9305"
     inkscape:connector-curvature="0" /><path
     d="m 73.458943,530.92847 q -1.7005,0 -2.880127,-1.16431 -1.164306,-1.17963 -1.164306,-2.88013 0,-1.10302 0.536194,-2.03753 1.148986,-2.0069 3.508239,-2.0069 l 4.044434,0 0,-2.02222 q 0,-0.85791 -0.582153,-1.44006 -0.582154,-0.58215 -1.440064,-0.58215 l -4.044433,0 q -1.011109,0 -1.011109,-1.01111 0,-1.01111 1.011109,-1.01111 l 4.044433,0 q 1.700501,0 2.864807,1.17963 1.179627,1.1643 1.179627,2.8648 l 0,9.09998 q 0,1.01111 -1.011109,1.01111 l -5.055542,0 z m 4.044434,-6.06665 -4.044434,0 q -0.84259,0 -1.440063,0.59747 -0.582153,0.58215 -0.582153,1.42474 0,0.82727 0.597473,1.42475 0.597473,0.59747 1.424743,0.59747 l 4.044434,0 0,-4.04443 z"
     style="font-style:normal;font-variant:normal;font-weight:normal;font-stretch:normal;font-size:31.375px;line-height:125%;font-family:ISOCPEUR;-inkscape-font-specification:'ISOCPEUR, Normal';text-align:start;writing-mode:lr-tb;text-anchor:start"
     id="path9307"
     inkscape:connector-curvature="0" /><path
     d="m 83.570027,511.71741 q 0,-1.01111 1.011109,-1.01111 1.011108,0 1.011108,1.01111 l 0,16.17773 q 0,0.78131 1.011109,1.01111 1.011108,0.2298 1.011108,1.01111 0,1.01111 -1.011108,1.01111 -1.363465,0 -2.206055,-0.79663 -0.827271,-0.81195 -0.827271,-2.2367 l 0,-16.17773 z"
     style="font-style:normal;font-variant:normal;font-weight:normal;font-stretch:normal;font-size:31.375px;line-height:125%;font-family:ISOCPEUR;-inkscape-font-specification:'ISOCPEUR, Normal';text-align:start;writing-mode:lr-tb;text-anchor:start"
     id="path9309"
     inkscape:connector-curvature="0" /><path
     d="m 104.8033,530.92847 q -1.0111,0 -1.0111,-1.01111 l 0,-18.19995 q 0,-1.01111 1.0111,-1.01111 1.01111,0 1.01111,1.01111 l 0,18.19995 q 0,1.01111 -1.01111,1.01111 z"
     style="font-style:normal;font-variant:normal;font-weight:normal;font-stretch:normal;font-size:31.375px;line-height:125%;font-family:ISOCPEUR;-inkscape-font-specification:'ISOCPEUR, Normal';text-align:start;writing-mode:lr-tb;text-anchor:start"
     id="path9311"
     inkscape:connector-curvature="0" /><path
     d="m 110.86995,516.77295 9.09998,0 q 1.7005,0 2.86481,1.17963 1.17962,1.1643 1.17962,2.8648 l 0,9.09998 q 0,1.01111 -1.01111,1.01111 -1.0111,0 -1.0111,-1.01111 l 0,-9.09998 q 0,-0.85791 -0.58216,-1.44006 -0.58215,-0.58215 -1.44006,-0.58215 l -2.02222,0 0,11.12219 q 0,1.01111 -1.01111,1.01111 -1.0111,0 -1.0111,-1.01111 l 0,-11.12219 -4.04444,0 0,11.12219 q 0,1.01111 -1.01111,1.01111 -1.0111,0 -1.0111,-1.01111 l 0,-12.1333 q 0,-1.01111 1.0111,-1.01111 z"
     style="font-style:normal;font-variant:normal;font-weight:normal;font-stretch:normal;font-size:31.375px;line-height:125%;font-family:ISOCPEUR;-inkscape-font-specification:'ISOCPEUR, Normal';text-align:start;writing-mode:lr-tb;text-anchor:start"
     id="path9313"
     inkscape:connector-curvature="0" /><path
     d="m 132.10323,530.92847 q -1.7005,0 -2.88013,-1.16431 -1.1643,-1.17963 -1.1643,-2.88013 0,-1.10302 0.53619,-2.03753 1.14899,-2.0069 3.50824,-2.0069 l 4.04443,0 0,-2.02222 q 0,-0.85791 -0.58215,-1.44006 -0.58215,-0.58215 -1.44006,-0.58215 l -4.04444,0 q -1.0111,0 -1.0111,-1.01111 0,-1.01111 1.0111,-1.01111 l 4.04444,0 q 1.7005,0 2.8648,1.17963 1.17963,1.1643 1.17963,2.8648 l 0,9.09998 q 0,1.01111 -1.01111,1.01111 l -5.05554,0 z m 4.04443,-6.06665 -4.04443,0 q -0.84259,0 -1.44006,0.59747 -0.58216,0.58215 -0.58216,1.42474 0,0.82727 0.59748,1.42475 0.59747,0.59747 1.42474,0.59747 l 4.04443,0 0,-4.04443 z"
     style="font-style:normal;font-variant:normal;font-weight:normal;font-stretch:normal;font-size:31.375px;line-height:125%;font-family:ISOCPEUR;-inkscape-font-specification:'ISOCPEUR, Normal';text-align:start;writing-mode:lr-tb;text-anchor:start"
     id="path9315"
     inkscape:connector-curvature="0" /><path
     d="m 151.31429,516.77295 q 1.01111,0 1.01111,1.01111 l 0,15.16662 q 0,1.7005 -1.17963,2.86481 -1.1643,1.17963 -2.86481,1.17963 l -4.04443,0 q -1.01111,0 -1.01111,-1.01111 0,-1.01111 1.01111,-1.01111 l 4.04443,0 q 0.8426,0 1.42475,-0.59747 0.59747,-0.58216 0.59747,-1.42475 l 0,-2.02221 -4.04443,0 q -2.35925,0 -3.50824,-2.0069 -0.5362,-0.93451 -0.5362,-2.03754 l 0,-6.06665 q 0,-1.7005 1.16431,-2.8648 1.17963,-1.17963 2.88013,-1.17963 l 5.05554,0 z m -1.01111,2.02222 -4.04443,0 q -0.84259,0 -1.44007,0.59747 -0.58215,0.58215 -0.58215,1.42474 l 0,6.06665 q 0,0.82727 0.59747,1.42475 0.59748,0.59747 1.42475,0.59747 l 4.04443,0 0,-10.11108 z"
     style="font-style:normal;font-variant:normal;font-weight:normal;font-stretch:normal;font-size:31.375px;line-height:125%;font-family:ISOCPEUR;-inkscape-font-specification:'ISOCPEUR, Normal';text-align:start;writing-mode:lr-tb;text-anchor:start"
     id="path9317"
     inkscape:connector-curvature="0" /><path
     d="m 161.42537,518.79517 q -1.25622,0 -2.14477,0.88855 -0.88855,0.88855 -0.88855,2.14477 l 0,1.01111 6.06665,0 0,-1.01111 q 0,-1.25622 -0.88855,-2.14477 -0.88855,-0.88855 -2.14478,-0.88855 z m -3.03332,6.06665 0,2.02221 q 0,0.82727 0.59747,1.42475 0.59748,0.59747 1.42475,0.59747 l 5.05554,0 q 1.01111,0 1.01111,1.01111 0,1.01111 -1.01111,1.01111 l -5.05554,0 q -1.7005,0 -2.88013,-1.16431 -1.16431,-1.17963 -1.16431,-2.88013 l 0,-5.05554 q 0,-2.09881 1.47071,-3.56952 1.48602,-1.48602 3.58483,-1.48602 2.12946,0 3.58484,1.4707 1.47071,1.45539 1.47071,3.58484 l 0,3.03333 -8.08887,0 z"
     style="font-style:normal;font-variant:normal;font-weight:normal;font-stretch:normal;font-size:31.375px;line-height:125%;font-family:ISOCPEUR;-inkscape-font-specification:'ISOCPEUR, Normal';text-align:start;writing-mode:lr-tb;text-anchor:start"
     id="path9319"
     inkscape:connector-curvature="0" /><path
     d="m 186.70308,530.92847 q -1.7005,0 -2.88012,-1.16431 -1.16431,-1.17963 -1.16431,-2.88013 0,-1.10302 0.53619,-2.03753 1.14899,-2.0069 3.50824,-2.0069 l 4.04444,0 0,-2.02222 q 0,-0.85791 -0.58216,-1.44006 -0.58215,-0.58215 -1.44006,-0.58215 l -4.04443,0 q -1.01111,0 -1.01111,-1.01111 0,-1.01111 1.01111,-1.01111 l 4.04443,0 q 1.7005,0 2.86481,1.17963 1.17962,1.1643 1.17962,2.8648 l 0,9.09998 q 0,1.01111 -1.0111,1.01111 l -5.05555,0 z m 4.04444,-6.06665 -4.04444,0 q -0.84259,0 -1.44006,0.59747 -0.58215,0.58215 -0.58215,1.42474 0,0.82727 0.59747,1.42475 0.59747,0.59747 1.42474,0.59747 l 4.04444,0 0,-4.04443 z"
     style="font-style:normal;font-variant:normal;font-weight:normal;font-stretch:normal;font-size:31.375px;line-height:125%;font-family:ISOCPEUR;-inkscape-font-specification:'ISOCPEUR, Normal';text-align:start;writing-mode:lr-tb;text-anchor:start"
     id="path9321"
     inkscape:connector-curvature="0" /><path
     d="m 196.81417,529.91736 0,-12.1333 q 0,-1.01111 1.01111,-1.01111 l 5.05554,0 q 1.7005,0 2.86481,1.17963 1.17962,1.1643 1.17962,2.8648 l 0,9.09998 q 0,1.01111 -1.01111,1.01111 -1.0111,0 -1.0111,-1.01111 l 0,-9.09998 q 0,-0.85791 -0.58216,-1.44006 -0.58215,-0.58215 -1.44006,-0.58215 l -4.04444,0 0,11.12219 q 0,1.01111 -1.0111,1.01111 -1.01111,0 -1.01111,-1.01111 z"
     style="font-style:normal;font-variant:normal;font-weight:normal;font-stretch:normal;font-size:31.375px;line-height:125%;font-family:ISOCPEUR;-inkscape-font-specification:'ISOCPEUR, Normal';text-align:start;writing-mode:lr-tb;text-anchor:start"
     id="path9323"
     inkscape:connector-curvature="0" /><path
     d="m 210.96969,520.81738 q 0,-1.10302 0.53619,-2.03753 1.14899,-2.0069 3.50824,-2.0069 l 4.04443,0 0,-5.05554 q 0,-1.01111 1.01111,-1.01111 1.01111,0 1.01111,1.01111 l 0,18.19995 q 0,1.01111 -1.01111,1.01111 l -5.05554,0 q -1.7005,0 -2.88013,-1.16431 -1.1643,-1.17963 -1.1643,-2.88013 l 0,-6.06665 z m 4.04443,-2.02221 q -0.84259,0 -1.44006,0.59747 -0.58216,0.58215 -0.58216,1.42474 l 0,6.06665 q 0,0.82727 0.59748,1.42475 0.59747,0.59747 1.42474,0.59747 l 4.04443,0 0,-10.11108 -4.04443,0 z"
     style="font-style:normal;font-variant:normal;font-weight:normal;font-stretch:normal;font-size:31.375px;line-height:125%;font-family:ISOCPEUR;-inkscape-font-specification:'ISOCPEUR, Normal';text-align:start;writing-mode:lr-tb;text-anchor:start"
     id="path9325"
     inkscape:connector-curvature="0" /><path
     d="m 237.2585,511.71741 q 0,-1.01111 1.01111,-1.01111 l 6.06665,0 q 2.12946,0 3.58484,1.4707 1.4707,1.45539 1.4707,3.58484 l 0,10.11108 q 0,2.09882 -1.48602,3.58484 -1.4707,1.47071 -3.56952,1.47071 l -6.06665,0 q -1.01111,0 -1.01111,-1.01111 l 0,-18.19995 z m 2.02222,1.01111 0,16.17773 5.05554,0 q 1.25623,0 2.14478,-0.88855 0.88855,-0.88855 0.88855,-2.14478 l 0,-10.11108 q 0,-1.25622 -0.88855,-2.14477 -0.88855,-0.88855 -2.14478,-0.88855 l -5.05554,0 z"
     style="font-style:normal;font-variant:normal;font-weight:normal;font-stretch:normal;font-size:31.375px;line-height:125%;font-family:ISOCPEUR;-inkscape-font-specification:'ISOCPEUR, Normal';text-align:start;writing-mode:lr-tb;text-anchor:start"
     id="path9327"
     inkscape:connector-curvature="0" /><path
     d="m 257.48067,530.92847 q -1.7005,0 -2.88013,-1.16431 -1.1643,-1.17963 -1.1643,-2.88013 0,-1.10302 0.53619,-2.03753 1.14899,-2.0069 3.50824,-2.0069 l 4.04444,0 0,-2.02222 q 0,-0.85791 -0.58216,-1.44006 -0.58215,-0.58215 -1.44006,-0.58215 l -4.04443,0 q -1.01111,0 -1.01111,-1.01111 0,-1.01111 1.01111,-1.01111 l 4.04443,0 q 1.7005,0 2.86481,1.17963 1.17962,1.1643 1.17962,2.8648 l 0,9.09998 q 0,1.01111 -1.01111,1.01111 l -5.05554,0 z m 4.04444,-6.06665 -4.04444,0 q -0.84259,0 -1.44006,0.59747 -0.58215,0.58215 -0.58215,1.42474 0,0.82727 0.59747,1.42475 0.59747,0.59747 1.42474,0.59747 l 4.04444,0 0,-4.04443 z"
     style="font-style:normal;font-variant:normal;font-weight:normal;font-stretch:normal;font-size:31.375px;line-height:125%;font-family:ISOCPEUR;-inkscape-font-specification:'ISOCPEUR, Normal';text-align:start;writing-mode:lr-tb;text-anchor:start"
     id="path9329"
     inkscape:connector-curvature="0" /><path
     d="m 269.61397,518.79517 -1.01111,0 q -1.0111,0 -1.0111,-1.01111 0,-1.01111 1.0111,-1.01111 l 1.01111,0 0,-5.05554 q 0,-1.01111 1.01111,-1.01111 1.01111,0 1.01111,1.01111 l 0,5.05554 3.03332,0 q 1.01111,0 1.01111,1.01111 0,1.01111 -1.01111,1.01111 l -3.03332,0 0,11.12219 q 0,1.01111 -1.01111,1.01111 -1.01111,0 -1.01111,-1.01111 l 0,-11.12219 z"
     style="font-style:normal;font-variant:normal;font-weight:normal;font-stretch:normal;font-size:31.375px;line-height:125%;font-family:ISOCPEUR;-inkscape-font-specification:'ISOCPEUR, Normal';text-align:start;writing-mode:lr-tb;text-anchor:start"
     id="path9331"
     inkscape:connector-curvature="0" /><path
     d="m 283.76949,530.92847 q -1.7005,0 -2.88013,-1.16431 -1.1643,-1.17963 -1.1643,-2.88013 0,-1.10302 0.53619,-2.03753 1.14899,-2.0069 3.50824,-2.0069 l 4.04443,0 0,-2.02222 q 0,-0.85791 -0.58215,-1.44006 -0.58215,-0.58215 -1.44006,-0.58215 l -4.04444,0 q -1.0111,0 -1.0111,-1.01111 0,-1.01111 1.0111,-1.01111 l 4.04444,0 q 1.7005,0 2.8648,1.17963 1.17963,1.1643 1.17963,2.8648 l 0,9.09998 q 0,1.01111 -1.01111,1.01111 l -5.05554,0 z m 4.04443,-6.06665 -4.04443,0 q -0.84259,0 -1.44006,0.59747 -0.58216,0.58215 -0.58216,1.42474 0,0.82727 0.59748,1.42475 0.59747,0.59747 1.42474,0.59747 l 4.04443,0 0,-4.04443 z"
     style="font-style:normal;font-variant:normal;font-weight:normal;font-stretch:normal;font-size:31.375px;line-height:125%;font-family:ISOCPEUR;-inkscape-font-specification:'ISOCPEUR, Normal';text-align:start;writing-mode:lr-tb;text-anchor:start"
     id="path9333"
     inkscape:connector-curvature="0" /><path
     d="m 313.09163,514.93457 -2.97204,8.91614 5.94409,0 -2.97205,-8.91614 z m 7.07776,14.98279 q 0,1.01111 -1.01111,1.01111 -0.73535,0 -0.96514,-0.6894 l -1.45539,-4.36615 -7.29223,0 -1.45539,4.36615 q -0.2298,0.6894 -0.96515,0.6894 -1.0111,0 -1.0111,-1.01111 0,-0.18384 0.046,-0.32172 l 6.0207,-18.07739 q 0.27575,-0.81195 1.0111,-0.81195 0.73536,0 0.99579,0.78131 l 6.03601,18.10803 q 0.046,0.13788 0.046,0.32172 z"
     style="font-style:normal;font-variant:normal;font-weight:normal;font-stretch:normal;font-size:31.375px;line-height:125%;font-family:ISOCPEUR;-inkscape-font-specification:'ISOCPEUR, Normal';text-align:start;writing-mode:lr-tb;text-anchor:start"
     id="path9335"
     inkscape:connector-curvature="0" /><path
     d="m 324.21383,529.91736 0,-12.1333 q 0,-1.01111 1.0111,-1.01111 l 5.05555,0 q 1.7005,0 2.8648,1.17963 1.17963,1.1643 1.17963,2.8648 l 0,9.09998 q 0,1.01111 -1.01111,1.01111 -1.01111,0 -1.01111,-1.01111 l 0,-9.09998 q 0,-0.85791 -0.58215,-1.44006 -0.58215,-0.58215 -1.44006,-0.58215 l -4.04444,0 0,11.12219 q 0,1.01111 -1.01111,1.01111 -1.0111,0 -1.0111,-1.01111 z"
     style="font-style:normal;font-variant:normal;font-weight:normal;font-stretch:normal;font-size:31.375px;line-height:125%;font-family:ISOCPEUR;-inkscape-font-specification:'ISOCPEUR, Normal';text-align:start;writing-mode:lr-tb;text-anchor:start"
     id="path9337"
     inkscape:connector-curvature="0" /><path
     d="m 342.41378,530.92847 q -1.7005,0 -2.88013,-1.16431 -1.16431,-1.17963 -1.16431,-2.88013 0,-1.10302 0.5362,-2.03753 1.14898,-2.0069 3.50824,-2.0069 l 4.04443,0 0,-2.02222 q 0,-0.85791 -0.58215,-1.44006 -0.58216,-0.58215 -1.44007,-0.58215 l -4.04443,0 q -1.01111,0 -1.01111,-1.01111 0,-1.01111 1.01111,-1.01111 l 4.04443,0 q 1.7005,0 2.86481,1.17963 1.17963,1.1643 1.17963,2.8648 l 0,9.09998 q 0,1.01111 -1.01111,1.01111 l -5.05554,0 z m 4.04443,-6.06665 -4.04443,0 q -0.84259,0 -1.44007,0.59747 -0.58215,0.58215 -0.58215,1.42474 0,0.82727 0.59747,1.42475 0.59748,0.59747 1.42475,0.59747 l 4.04443,0 0,-4.04443 z"
     style="font-style:normal;font-variant:normal;font-weight:normal;font-stretch:normal;font-size:31.375px;line-height:125%;font-family:ISOCPEUR;-inkscape-font-specification:'ISOCPEUR, Normal';text-align:start;writing-mode:lr-tb;text-anchor:start"
     id="path9339"
     inkscape:connector-curvature="0" /><path
     d="m 352.52486,511.71741 q 0,-1.01111 1.01111,-1.01111 1.01111,0 1.01111,1.01111 l 0,16.17773 q 0,0.78131 1.01111,1.01111 1.0111,0.2298 1.0111,1.01111 0,1.01111 -1.0111,1.01111 -1.36347,0 -2.20606,-0.79663 -0.82727,-0.81195 -0.82727,-2.2367 l 0,-16.17773 z"
     style="font-style:normal;font-variant:normal;font-weight:normal;font-stretch:normal;font-size:31.375px;line-height:125%;font-family:ISOCPEUR;-inkscape-font-specification:'ISOCPEUR, Normal';text-align:start;writing-mode:lr-tb;text-anchor:start"
     id="path9341"
     inkscape:connector-curvature="0" /><path
     d="m 362.9117,534.9729 1.68518,-5.05554 -3.92187,-11.81159 q -0.0613,-0.18383 -0.0613,-0.32171 0,-1.01111 1.01111,-1.01111 0.73535,0 0.96515,0.68939 l 3.07928,9.23786 3.07929,-9.23786 q 0.22979,-0.68939 0.96514,-0.68939 1.01111,0 1.01111,1.01111 0,0.13788 -0.0613,0.32171 l -6.05133,18.19996 q -0.22979,0.68939 -0.96515,0.68939 l -2.03753,0 q -1.01111,0 -1.01111,-1.01111 0,-0.81195 0.84259,-0.98047 0.13788,-0.0306 1.4707,-0.0306 z"
     style="font-style:normal;font-variant:normal;font-weight:normal;font-stretch:normal;font-size:31.375px;line-height:125%;font-family:ISOCPEUR;-inkscape-font-specification:'ISOCPEUR, Normal';text-align:start;writing-mode:lr-tb;text-anchor:start"
     id="path9343"
     inkscape:connector-curvature="0" /><path
     d="m 382.85811,527.38959 q 0,-0.96515 -0.85791,-1.37879 l -5.19342,-2.49713 q -2.03753,-0.98047 -2.03753,-3.20184 0,-1.74646 1.44006,-2.69629 1.24091,-0.82727 3.0946,-0.82727 2.25202,0 4.02912,1.11835 0.53619,0.33703 0.53619,0.88855 0,0.41363 -0.30639,0.72003 -0.29108,0.29107 -0.70472,0.29107 -0.27575,0 -0.47491,-0.12255 -1.45538,-0.87323 -3.07929,-0.87323 -2.51245,0 -2.51245,1.50134 0,0.94983 0.82727,1.34814 l 5.23938,2.52777 q 2.02222,0.98047 2.02222,3.20185 0,1.83838 -1.45538,2.75757 -1.24091,0.78131 -3.20185,0.78131 -2.91076,0 -4.88702,-1.11835 -0.56683,-0.32172 -0.56683,-0.90387 0,-0.41364 0.29107,-0.70471 0.3064,-0.3064 0.72003,-0.3064 0.19916,0 0.383,0.0766 0.49023,0.21448 1.44006,0.56683 1.37879,0.36768 2.68097,0.36768 2.57373,0 2.57373,-1.51666 z"
     style="font-style:normal;font-variant:normal;font-weight:normal;font-stretch:normal;font-size:31.375px;line-height:125%;font-family:ISOCPEUR;-inkscape-font-specification:'ISOCPEUR, Normal';text-align:start;writing-mode:lr-tb;text-anchor:start"
     id="path9345"
     inkscape:connector-curvature="0" /><path
     d="m 388.92476,517.78406 q 0,-1.01111 1.01111,-1.01111 1.01111,0 1.01111,1.01111 l 0,12.1333 q 0,1.01111 -1.01111,1.01111 -1.01111,0 -1.01111,-1.01111 l 0,-12.1333 z m 0,-5.05554 0,-1.01111 q 0,-1.01111 1.01111,-1.01111 1.01111,0 1.01111,1.01111 l 0,1.01111 q 0,1.0111 -1.01111,1.0111 -1.01111,0 -1.01111,-1.0111 z"
     style="font-style:normal;font-variant:normal;font-weight:normal;font-stretch:normal;font-size:31.375px;line-height:125%;font-family:ISOCPEUR;-inkscape-font-specification:'ISOCPEUR, Normal';text-align:start;writing-mode:lr-tb;text-anchor:start"
     id="path9347"
     inkscape:connector-curvature="0" /><path
     d="m 403.08028,527.38959 q 0,-0.96515 -0.85791,-1.37879 l -5.19342,-2.49713 q -2.03754,-0.98047 -2.03754,-3.20184 0,-1.74646 1.44007,-2.69629 1.2409,-0.82727 3.0946,-0.82727 2.25202,0 4.02912,1.11835 0.53619,0.33703 0.53619,0.88855 0,0.41363 -0.3064,0.72003 -0.29107,0.29107 -0.70471,0.29107 -0.27576,0 -0.47491,-0.12255 -1.45539,-0.87323 -3.07929,-0.87323 -2.51245,0 -2.51245,1.50134 0,0.94983 0.82727,1.34814 l 5.23938,2.52777 q 2.02222,0.98047 2.02222,3.20185 0,1.83838 -1.45539,2.75757 -1.2409,0.78131 -3.20184,0.78131 -2.91077,0 -4.88702,-1.11835 -0.56684,-0.32172 -0.56684,-0.90387 0,-0.41364 0.29108,-0.70471 0.3064,-0.3064 0.72003,-0.3064 0.19916,0 0.383,0.0766 0.49023,0.21448 1.44006,0.56683 1.37879,0.36768 2.68097,0.36768 2.57373,0 2.57373,-1.51666 z"
     style="font-style:normal;font-variant:normal;font-weight:normal;font-stretch:normal;font-size:31.375px;line-height:125%;font-family:ISOCPEUR;-inkscape-font-specification:'ISOCPEUR, Normal';text-align:start;writing-mode:lr-tb;text-anchor:start"
     id="path9349"
     inkscape:connector-curvature="0" /></g><a
   style="overflow:visible"
   id="a4345-7"
   transform="translate(178.35365,-282.3392)" /><g
   style="font-style:normal;font-variant:normal;font-weight:normal;font-stretch:normal;font-size:40px;line-height:125%;font-family:ISOCPEUR;-inkscape-font-specification:'ISOCPEUR, Normal';text-align:start;letter-spacing:0px;word-spacing:0px;writing-mode:lr-tb;text-anchor:start;fill:#a1163a;fill-opacity:1;stroke:none;stroke-width:1px;stroke-linecap:butt;stroke-linejoin:miter;stroke-opacity:1"
   id="text4245"
   transform="matrix(0.45137406,0,0,0.45050141,-1.2737051,-5.8547985)"><path
     d="m 6.6890268,438.64111 34.8046872,0 q 6.503907,0 10.957032,4.51172 4.511718,4.45313 4.511718,10.95703 l 0,34.80469 q 0,3.86719 -3.867187,3.86719 -3.867188,0 -3.867188,-3.86719 l 0,-34.80469 q 0,-3.28125 -2.226562,-5.50781 -2.226563,-2.22656 -5.507813,-2.22656 l -7.734375,0 0,42.53906 q 0,3.86719 -3.867187,3.86719 -3.867188,0 -3.867188,-3.86719 l 0,-42.53906 -15.46875,0 0,42.53906 q 0,3.86719 -3.8671872,3.86719 -3.8671875,0 -3.8671875,-3.86719 l 0,-46.40625 q 0,-3.86719 3.8671875,-3.86719 z"
     style="font-size:120px"
     id="path4250"
     inkscape:connector-curvature="0" /><path
     d="m 72.431214,442.5083 q 0,-3.86719 3.867188,-3.86719 3.867187,0 3.867187,3.86719 l 0,46.40625 q 0,3.86719 -3.867187,3.86719 -3.867188,0 -3.867188,-3.86719 l 0,-46.40625 z m 0,-19.33594 0,-3.86718 q 0,-3.86719 3.867188,-3.86719 3.867187,0 3.867187,3.86719 l 0,3.86718 q 0,3.86719 -3.867187,3.86719 -3.867188,0 -3.867188,-3.86719 z"
     style="font-size:120px"
     id="path4252"
     inkscape:connector-curvature="0" /><path
     d="m 95.634339,454.10986 q 0,-4.21875 2.050782,-7.79297 4.394529,-7.67578 13.417969,-7.67578 l 15.46875,0 0,-19.33593 q 0,-3.86719 3.86719,-3.86719 3.86718,0 3.86718,3.86719 l 0,69.60937 q 0,3.86719 -3.86718,3.86719 l -19.33594,0 q -6.50391,0 -11.01563,-4.45313 -4.453121,-4.51172 -4.453121,-11.01562 l 0,-23.20313 z m 15.468751,-7.73437 q -3.22266,0 -5.50781,2.28515 -2.22657,2.22657 -2.22657,5.44922 l 0,23.20313 q 0,3.16406 2.28516,5.44922 2.28516,2.28515 5.44922,2.28515 l 15.46875,0 0,-38.67187 -15.46875,0 z"
     style="font-size:120px"
     id="path4254"
     inkscape:connector-curvature="0" /><path
     d="m 165.24371,492.78174 q -6.5039,0 -11.01562,-4.45313 -4.45313,-4.51172 -4.45313,-11.01562 0,-4.21875 2.05079,-7.79297 4.39453,-7.67578 13.41796,-7.67578 l 15.46875,0 0,-7.73438 q 0,-3.28125 -2.22656,-5.50781 -2.22656,-2.22656 -5.50781,-2.22656 l -15.46875,0 q -3.86719,0 -3.86719,-3.86719 0,-3.86719 3.86719,-3.86719 l 15.46875,0 q 6.50391,0 10.95703,4.51172 4.51172,4.45313 4.51172,10.95703 l 0,34.80469 q 0,3.86719 -3.86719,3.86719 l -19.33594,0 z m 15.46875,-23.20313 -15.46875,0 q -3.22265,0 -5.50781,2.28516 -2.22656,2.22656 -2.22656,5.44922 0,3.16406 2.28516,5.44922 2.28515,2.28515 5.44921,2.28515 l 15.46875,0 0,-15.46875 z"
     style="font-size:120px"
     id="path4256"
     inkscape:connector-curvature="0" /><path
     d="m 234.85309,479.24658 q 0,-3.6914 -3.28125,-5.27344 l -19.86328,-9.55078 q -7.79297,-3.75 -7.79297,-12.24609 0,-6.67969 5.50781,-10.3125 4.7461,-3.16406 11.83594,-3.16406 8.61328,0 15.41016,4.27734 2.05078,1.28906 2.05078,3.39844 0,1.58203 -1.17188,2.7539 -1.11328,1.11329 -2.69531,1.11329 -1.05469,0 -1.81641,-0.46875 -5.5664,-3.33985 -11.77734,-3.33985 -9.60938,0 -9.60938,5.74219 0,3.63281 3.16407,5.15625 l 20.03906,9.66797 q 7.73437,3.75 7.73437,12.24609 0,7.03125 -5.5664,10.54688 -4.7461,2.98828 -12.2461,2.98828 -11.13281,0 -18.6914,-4.27735 -2.16797,-1.23046 -2.16797,-3.45703 0,-1.58203 1.11328,-2.69531 1.17188,-1.17187 2.75391,-1.17187 0.76172,0 1.46484,0.29296 1.875,0.82032 5.50781,2.16797 5.27344,1.40625 10.25391,1.40625 9.84375,0 9.84375,-5.80078 z"
     style="font-size:120px"
     id="path4258"
     inkscape:connector-curvature="0" /><path
     d="m 258.05621,485.04736 q 0,-3.86718 3.86719,-3.86718 3.86719,0 3.86719,3.86718 l 0,3.86719 q 0,3.86719 -3.86719,3.86719 -3.86719,0 -3.86719,-3.86719 l 0,-3.86719 z"
     style="font-size:120px"
     id="path4260"
     inkscape:connector-curvature="0" /><path
     d="m 281.25934,419.30518 q 0,-3.86719 3.86719,-3.86719 3.86718,0 3.86718,3.86719 l 0,61.875 q 0,2.98828 3.86719,3.86718 3.86719,0.87891 3.86719,3.86719 0,3.86719 -3.86719,3.86719 -5.21484,0 -8.4375,-3.04688 -3.16406,-3.10547 -3.16406,-8.55468 l 0,-61.875 z"
     style="font-size:120px"
     id="path4262"
     inkscape:connector-curvature="0" /><path
     d="m 327.66559,492.78174 q -6.50391,0 -11.01563,-4.45313 -4.45312,-4.51172 -4.45312,-11.01562 0,-4.21875 2.05078,-7.79297 4.39453,-7.67578 13.41797,-7.67578 l 15.46875,0 0,-7.73438 q 0,-3.28125 -2.22656,-5.50781 -2.22657,-2.22656 -5.50782,-2.22656 l -15.46875,0 q -3.86718,0 -3.86718,-3.86719 0,-3.86719 3.86718,-3.86719 l 15.46875,0 q 6.50391,0 10.95704,4.51172 4.51171,4.45313 4.51171,10.95703 l 0,34.80469 q 0,3.86719 -3.86718,3.86719 l -19.33594,0 z m 15.46875,-23.20313 -15.46875,0 q -3.22266,0 -5.50781,2.28516 -2.22657,2.22656 -2.22657,5.44922 0,3.16406 2.28516,5.44922 2.28516,2.28515 5.44922,2.28515 l 15.46875,0 0,-15.46875 z"
     style="font-size:120px"
     id="path4264"
     inkscape:connector-curvature="0" /><path
     d="m 405.00934,454.10986 0,23.20313 q 0,6.5039 -4.51172,11.01562 -4.45312,4.45313 -10.95703,4.45313 l -19.33594,0 q -3.86719,0 -3.86719,-3.86719 l 0,-69.60937 q 0,-3.86719 3.86719,-3.86719 3.86719,0 3.86719,3.86719 l 0,19.33593 15.46875,0 q 9.02344,0 13.41797,7.67578 2.05078,3.57422 2.05078,7.79297 z m -15.46875,-7.73437 -15.46875,0 0,38.67187 15.46875,0 q 3.22266,0 5.44922,-2.22656 2.28515,-2.28516 2.28515,-5.50781 l 0,-23.20313 q 0,-3.28125 -2.22656,-5.50781 -2.22656,-2.22656 -5.50781,-2.22656 z"
     style="font-size:120px"
     id="path4266"
     inkscape:connector-curvature="0" /></g><path
   style="opacity:0.97000002;fill:#ffffff;fill-opacity:0.13695092;stroke:#34434b;stroke-width:0.38447437;stroke-opacity:1"
   d=""
   id="path4626"
   inkscape:connector-curvature="0" /><ellipse
   transform="translate(0.1522475,2.2540022)"
   cx="91.386436"
   cy="87.214699"
   id="circle21"
   style="overflow:visible;fill:none;stroke:#b3a06c;stroke-width:4.66666651;stroke-miterlimit:4;stroke-dasharray:none"
   rx="83.052834"
   ry="82.892265"
   clip-path="url(#clipPath1173)" /></svg>